<svg xmlns="http://www.w3.org/2000/svg" xmlns:xlink="http://www.w3.org/1999/xlink" contentStyleType="text/css" data-diagram-type="DESCRIPTION" height="1156px" preserveAspectRatio="none" style="width:1267px;height:1156px;background:#FFFFFF;" version="1.1" viewBox="0 0 1267 1156" width="1267px" zoomAndPan="magnify"><?plantuml 1.2026.6?><defs/><g><g class="title" data-source-line="11"><text fill="#000000" font-family="sans-serif" font-size="14" font-weight="700" lengthAdjust="spacing" textLength="272.5283" x="494.0667" y="23.5352">CGC &#24179;&#21488;&#23481;&#22120;&#25299;&#25169;&#65288;C4 Container&#65292;L0&#65289;</text></g><!--cluster USERSIDE--><g class="cluster" data-qualified-name="USERSIDE" data-source-line="30" id="ent0004"><rect fill="#E8F0FE" height="152.96" rx="2.5" ry="2.5" style="stroke:#2E7D32;stroke-width:1;" width="349" x="806" y="266.4683"/><text fill="#000000" font-family="sans-serif" font-size="14" font-weight="700" lengthAdjust="spacing" textLength="197.9551" x="881.5225" y="282.0034">&#29992;&#25143;&#20391;&#65288;BYO&#65292;&#38750;&#24179;&#21488;&#20132;&#20184;&#29289;&#65289;</text></g><!--cluster PLATFORM--><g class="cluster" data-qualified-name="PLATFORM" data-source-line="34" id="ent0006"><rect fill="#F0FDE8" height="943.68" rx="2.5" ry="2.5" style="stroke:#2E7D32;stroke-width:1;" width="727" x="7" y="198.9583"/><text fill="#000000" font-family="sans-serif" font-size="14" font-weight="700" lengthAdjust="spacing" textLength="206.8828" x="267.0586" y="214.4934">CGC-2046 &#24179;&#21488;&#65288;&#20179;&#24211;&#20132;&#20184;&#29289;&#65289;</text></g><!--cluster WEB--><g class="cluster" data-qualified-name="PLATFORM.WEB" data-source-line="36" id="ent0007"><rect fill="#F0FDE8" height="152.98" rx="2.5" ry="2.5" style="stroke:#2E7D32;stroke-width:1;" width="247" x="39" y="249.9583"/><text fill="#000000" font-family="sans-serif" font-size="14" font-weight="700" lengthAdjust="spacing" textLength="37.4746" x="143.7627" y="265.4934">web/</text><text fill="#000000" font-family="sans-serif" font-size="14" font-weight="700" lengthAdjust="spacing" textLength="154.6973" x="85.1514" y="281.9817">Next.js 16 + React 19</text><text fill="#000000" font-family="sans-serif" font-size="14" font-weight="700" lengthAdjust="spacing" textLength="109.0879" x="107.9561" y="298.47">+ Apollo Client</text></g><!--cluster MINI--><g class="cluster" data-qualified-name="PLATFORM.MINI" data-source-line="40" id="ent0009"><rect fill="#F0FDE8" height="152.98" rx="2.5" ry="2.5" style="stroke:#2E7D32;stroke-width:1;" width="258" x="326" y="249.9583"/><text fill="#000000" font-family="sans-serif" font-size="14" font-weight="700" lengthAdjust="spacing" textLength="101.7803" x="404.1099" y="265.4934">miniprogram/</text><text fill="#000000" font-family="sans-serif" font-size="14" font-weight="700" lengthAdjust="spacing" textLength="129.7119" x="390.144" y="281.9817">Taro 4 + React 18</text><text fill="#000000" font-family="sans-serif" font-size="14" font-weight="700" lengthAdjust="spacing" textLength="160.084" x="374.958" y="298.47">&#22810;&#31471;&#65306;weapp / tt / xhs</text></g><!--cluster BE--><g class="cluster" data-qualified-name="PLATFORM.BE" data-source-line="44" id="ent0011"><rect fill="#F0FDE8" height="478.26" rx="2.5" ry="2.5" style="stroke:#2E7D32;stroke-width:1;" width="679" x="31" y="506.4283"/><text fill="#000000" font-family="sans-serif" font-size="14" font-weight="700" lengthAdjust="spacing" textLength="68.4072" x="336.2964" y="521.9634">backend/</text><text fill="#000000" font-family="sans-serif" font-size="14" font-weight="700" lengthAdjust="spacing" textLength="118.5762" x="311.2119" y="538.4517">Phoenix + Ash 3</text></g><!--entity EXT--><g class="entity" data-qualified-name="USERSIDE.EXT" data-source-line="31" id="ent0005"><rect fill="#F0FDE8" height="85.9531" rx="2.5" ry="2.5" style="stroke:#2E7D32;stroke-width:0.5;" width="281.8301" x="830.08" y="309.4683"/><text fill="#000000" font-family="sans-serif" font-size="14" lengthAdjust="spacing" textLength="179.1631" x="840.08" y="333.0034">openclacky-ext/cgc-2046</text><text fill="#000000" font-family="sans-serif" font-size="14" lengthAdjust="spacing" textLength="140.7383" x="840.08" y="349.4917">&#65288;OpenClacky &#25193;&#23637;&#65289;</text><text fill="#000000" font-family="sans-serif" font-size="14" lengthAdjust="spacing" textLength="261.8301" x="840.08" y="365.98">&#183; connect API &#21407;&#23376;&#20889; /.clacky/mcp.json</text><text fill="#000000" font-family="sans-serif" font-size="14" lengthAdjust="spacing" textLength="201.3936" x="840.08" y="382.4683">&#183; panel / agent / skill / hooks</text></g><!--entity PG--><g class="entity" data-qualified-name="PLATFORM.PG" data-source-line="53" id="ent0018"><path d="M454.19,1041.6883 C454.19,1031.6883 584.0001,1031.6883 584.0001,1031.6883 C584.0001,1031.6883 713.8101,1031.6883 713.8101,1041.6883 L713.8101,1116.6414 C713.8101,1126.6414 584.0001,1126.6414 584.0001,1126.6414 C584.0001,1126.6414 454.19,1126.6414 454.19,1116.6414 L454.19,1041.6883" fill="#FFF3E0" style="stroke:#E65100;stroke-width:0.5;"/><path d="M454.19,1041.6883 C454.19,1051.6883 584.0001,1051.6883 584.0001,1051.6883 C584.0001,1051.6883 713.8101,1051.6883 713.8101,1041.6883" fill="none" style="stroke:#E65100;stroke-width:0.5;"/><text fill="#000000" font-family="sans-serif" font-size="14" lengthAdjust="spacing" textLength="76.8496" x="464.19" y="1069.2234">PostgreSQL</text><text fill="#000000" font-family="sans-serif" font-size="14" lengthAdjust="spacing" textLength="187.6328" x="464.19" y="1085.7117">&#19994;&#21153;&#34920;&#65288;Ash multitenancy&#65289;</text><text fill="#000000" font-family="sans-serif" font-size="14" lengthAdjust="spacing" textLength="239.6201" x="464.19" y="1102.2">+ Oban jobs + signal_idempotency</text><text fill="#000000" font-family="sans-serif" font-size="14" lengthAdjust="spacing" textLength="163.3994" x="464.19" y="1118.6883">+ workflow checkpoints</text></g><!--entity REWRITE--><g class="entity" data-qualified-name="PLATFORM.WEB.REWRITE" data-source-line="37" id="ent0008"><rect fill="#F0FDE8" height="52.9766" rx="2.5" ry="2.5" style="stroke:#2E7D32;stroke-width:0.5;" width="179.626" x="63.19" y="325.9583"/><text fill="#000000" font-family="sans-serif" font-size="14" lengthAdjust="spacing" textLength="139.3779" x="73.19" y="349.4934">/api/graphql rewrite</text><text fill="#000000" font-family="sans-serif" font-size="14" lengthAdjust="spacing" textLength="159.626" x="73.19" y="365.9817">&#8594; backend&#65288;&#21516;&#28304;&#20195;&#29702;&#65289;</text></g><!--entity CODEGEN--><g class="entity" data-qualified-name="PLATFORM.MINI.CODEGEN" data-source-line="41" id="ent0010"><rect fill="#F0FDE8" height="52.9766" rx="2.5" ry="2.5" style="stroke:#2E7D32;stroke-width:0.5;" width="190.4199" x="349.79" y="325.9583"/><text fill="#000000" font-family="sans-serif" font-size="14" lengthAdjust="spacing" textLength="118.248" x="359.79" y="349.4934">graphql-codegen</text><text fill="#000000" font-family="sans-serif" font-size="14" lengthAdjust="spacing" textLength="170.4199" x="359.79" y="365.9817">&#65288;check:graphql &#38450;&#28418;&#31227;&#65289;</text></g><!--entity GQL--><g class="entity" data-qualified-name="PLATFORM.BE.GQL" data-source-line="45" id="ent0012"><rect fill="#F0FDE8" height="69.4648" rx="2.5" ry="2.5" style="stroke:#2E7D32;stroke-width:0.5;" width="204.2695" x="46.87" y="557.4283"/><text fill="#000000" font-family="sans-serif" font-size="14" lengthAdjust="spacing" textLength="85.2783" x="56.87" y="580.9634">GraphQL API</text><text fill="#000000" font-family="sans-serif" font-size="14" lengthAdjust="spacing" textLength="168.7656" x="56.87" y="597.4517">Absinthe @ /api/graphql</text><text fill="#000000" font-family="sans-serif" font-size="14" lengthAdjust="spacing" textLength="184.2695" x="56.87" y="613.94">&#65288;+ /api/playground dev&#65289;</text></g><!--entity MCP--><g class="entity" data-qualified-name="PLATFORM.BE.MCP" data-source-line="46" id="ent0013"><rect fill="#F0FDE8" height="69.4648" rx="2.5" ry="2.5" style="stroke:#2E7D32;stroke-width:0.5;" width="220.8398" x="286.58" y="557.4283"/><text fill="#000000" font-family="sans-serif" font-size="14" lengthAdjust="spacing" textLength="75.7559" x="296.58" y="580.9634">MCP Server</text><text fill="#000000" font-family="sans-serif" font-size="14" lengthAdjust="spacing" textLength="200.8398" x="296.58" y="597.4517">anubis_mcp streamable HTTP</text><text fill="#000000" font-family="sans-serif" font-size="14" lengthAdjust="spacing" textLength="123.6826" x="296.58" y="613.94">@ /mcp&#65288;Bearer&#65289;</text></g><!--entity OPS--><g class="entity" data-qualified-name="PLATFORM.BE.OPS" data-source-line="47" id="ent0014"><rect fill="#F0FDE8" height="52.9766" rx="2.5" ry="2.5" style="stroke:#2E7D32;stroke-width:0.5;" width="151.9404" x="542.03" y="565.6683"/><text fill="#000000" font-family="sans-serif" font-size="14" lengthAdjust="spacing" textLength="122.5273" x="552.03" y="589.2034">AshAdmin @ /ops</text><text fill="#000000" font-family="sans-serif" font-size="14" lengthAdjust="spacing" textLength="131.9404" x="552.03" y="605.6917">&#65288;admin_browser&#65289;</text></g><!--entity ENGINE--><g class="entity" data-qualified-name="PLATFORM.BE.ENGINE" data-source-line="48" id="ent0015"><rect fill="#F0FDE8" height="85.9531" rx="2.5" ry="2.5" style="stroke:#2E7D32;stroke-width:0.5;" width="231.2852" x="123.36" y="704.7783"/><text fill="#000000" font-family="sans-serif" font-size="14" lengthAdjust="spacing" textLength="95.498" x="133.36" y="728.3134">Workflow &#24341;&#25806;</text><text fill="#000000" font-family="sans-serif" font-size="14" lengthAdjust="spacing" textLength="150.6436" x="133.36" y="744.8017">Jido + run/checkpoint</text><text fill="#000000" font-family="sans-serif" font-size="14" lengthAdjust="spacing" textLength="168.3896" x="133.36" y="761.29">+ SignalEmitter/&#20845;&#35746;&#38405;&#26041;</text><text fill="#000000" font-family="sans-serif" font-size="14" lengthAdjust="spacing" textLength="211.2852" x="133.36" y="777.7783">&#65288;Phoenix PubSub &#36827;&#31243;&#20869;&#24635;&#32447;&#65289;</text></g><!--entity OBR--><g class="entity" data-qualified-name="PLATFORM.BE.OBR" data-source-line="49" id="ent0016"><rect fill="#F0FDE8" height="85.9531" rx="2.5" ry="2.5" style="stroke:#2E7D32;stroke-width:0.5;" width="261.1924" x="159.4" y="882.7283"/><text fill="#000000" font-family="sans-serif" font-size="14" lengthAdjust="spacing" textLength="95.6895" x="169.4" y="906.2634">Oban Workers</text><text fill="#000000" font-family="sans-serif" font-size="14" lengthAdjust="spacing" textLength="214.4639" x="169.4" y="922.7517">&#65288;PG-backed&#65292;&#26080;&#29420;&#31435;&#38431;&#21015;&#26381;&#21153;&#65289;</text><text fill="#000000" font-family="sans-serif" font-size="14" lengthAdjust="spacing" textLength="241.1924" x="169.4" y="939.24">signal_publish / approval_reminder</text><text fill="#000000" font-family="sans-serif" font-size="14" lengthAdjust="spacing" textLength="155.1006" x="169.4" y="955.7283">/ reconciliation_scan&#8230;</text></g><!--entity MAIL--><g class="entity" data-qualified-name="PLATFORM.BE.MAIL" data-source-line="50" id="ent0017"><rect fill="#F0FDE8" height="85.9531" rx="2.5" ry="2.5" style="stroke:#2E7D32;stroke-width:0.5;" width="218.7275" x="389.64" y="704.7783"/><text fill="#000000" font-family="sans-serif" font-size="14" lengthAdjust="spacing" textLength="83.7813" x="399.64" y="728.3134">Swoosh &#37038;&#20214;</text><text fill="#000000" font-family="sans-serif" font-size="14" lengthAdjust="spacing" textLength="188.9043" x="399.64" y="744.8017">SendCloud adapter&#65288;prod&#65289;</text><text fill="#000000" font-family="sans-serif" font-size="14" lengthAdjust="spacing" textLength="198.7275" x="399.64" y="761.29">Test adapter + /dev/mailbox</text><text fill="#000000" font-family="sans-serif" font-size="14" lengthAdjust="spacing" textLength="84.6084" x="399.64" y="777.7783">&#65288;test/dev&#65289;</text></g><!--entity Browser--><g class="entity" data-qualified-name="Browser" data-source-line="26" id="ent0001"><ellipse cx="278" cy="51.4883" fill="#F1F1F1" rx="8" ry="8" style="stroke:#181818;stroke-width:0.5;"/><path d="M278,59.4883 L278,86.4883 M265,67.4883 L291,67.4883 M278,86.4883 L265,101.4883 M278,86.4883 L291,101.4883" fill="none" style="stroke:#181818;stroke-width:0.5;"/><text fill="#000000" font-family="sans-serif" font-size="14" lengthAdjust="spacing" textLength="28" x="257" y="116.5234">&#29992;&#25143;</text><text fill="#000000" font-family="sans-serif" font-size="14" lengthAdjust="spacing" textLength="42" x="257" y="133.0117">&#27983;&#35272;&#22120;</text></g><!--entity MP--><g class="entity" data-qualified-name="MP" data-source-line="27" id="ent0002"><ellipse cx="569" cy="51.4883" fill="#F1F1F1" rx="8" ry="8" style="stroke:#181818;stroke-width:0.5;"/><path d="M569,59.4883 L569,86.4883 M556,67.4883 L582,67.4883 M569,86.4883 L556,101.4883 M569,86.4883 L582,101.4883" fill="none" style="stroke:#181818;stroke-width:0.5;"/><text fill="#000000" font-family="sans-serif" font-size="14" lengthAdjust="spacing" textLength="83.9727" x="527" y="116.5234">&#24494;&#20449; / &#25238;&#38899; /</text><text fill="#000000" font-family="sans-serif" font-size="14" lengthAdjust="spacing" textLength="84" x="527" y="133.0117">&#23567;&#32418;&#20070;&#23458;&#25143;&#31471;</text></g><!--entity OC--><g class="entity" data-qualified-name="OC" data-source-line="28" id="ent0003"><ellipse cx="775.0015" cy="51.4883" fill="#F1F1F1" rx="8" ry="8" style="stroke:#181818;stroke-width:0.5;"/><path d="M775.0015,59.4883 L775.0015,86.4883 M762.0015,67.4883 L788.0015,67.4883 M775.0015,86.4883 L762.0015,101.4883 M775.0015,86.4883 L788.0015,101.4883" fill="none" style="stroke:#181818;stroke-width:0.5;"/><text fill="#000000" font-family="sans-serif" font-size="14" lengthAdjust="spacing" textLength="80.3086" x="710.73" y="116.5234">OpenClacky</text><text fill="#000000" font-family="sans-serif" font-size="14" lengthAdjust="spacing" textLength="128.543" x="710.73" y="133.0117">&#65288;&#29992;&#25143;&#26412;&#26426; Agent&#65289;</text></g><!--entity SENDCLOUD--><g class="entity" data-qualified-name="SENDCLOUD" data-source-line="56" id="ent0019"><path d="M759.4859,903.3938 C763.0495,898.3094 766.2681,898.2439 769.8037,903.4219 C772.9636,897.8348 776.8734,899.0031 780.2174,903.2266 C782.8899,897.041 788.0842,896.0634 792.1228,901.8704 C795.7242,897.08 799.6072,897.5177 803.1235,901.9717 C806.3564,896.128 810.5674,896.4511 814.4817,901.244 C819.0756,895.2533 823.8801,895.461 827.1411,902.5354 C829.4312,897.6854 833.2436,896.4743 836.9362,901.083 C841.2529,895.3651 845.4855,896.5235 848.3197,902.5233 C850.7508,897.5789 855.884,896.6197 859.2258,901.5138 C863.5485,897.1778 867.626,897.0055 870.6611,902.9465 C874.7053,896.9139 880.1974,896.8765 883.3508,903.8178 C886.1058,898.6998 890.1298,898.9361 893.257,903.4344 C899.7046,906.2955 900.1738,910.1379 895.6244,915.2099 C902.6367,915.643 904.4531,921.0637 900.0106,926.1073 C904.8604,932.1131 902.6087,936.4905 895.977,938.8668 C901.146,943.4173 900.0474,948.1158 894.0938,950.9299 C890.443,955.3567 885.8585,955.9806 883.2366,949.8697 C879.9795,955.2387 876.0687,955.3876 871.772,951.1045 C867.8481,956.5497 863.3234,957.5426 859.2082,951.3103 C856.651,955.9296 852.3137,957.3091 849.0631,952.0204 C844.4499,958.4749 840.305,957.2472 836.7065,951.0309 C833.7212,955.6637 830.636,956.6571 826.6212,952.1693 C821.6769,958.1807 818.2019,956.7772 814.7445,950.7076 C811.4612,956.5729 806.7879,955.6906 803.3204,950.9052 C800.6882,956.011 796.5116,956.6612 793.334,951.4322 C789.6933,956.9818 784.9995,956.5284 782.1393,950.6665 C779.473,956.4539 773.938,956.7909 770.6727,951.2742 C765.4199,957.6603 761.1706,956.1466 757.6598,949.5308 C752.0723,948.2311 750.3599,943.9333 754.6185,939.6141 C747.4245,937.851 745.3713,933.3452 750.5225,927.4314 C746.0383,922.1662 747.281,915.9327 754.5066,914.191 C750.4704,907.9782 753.0623,904.7829 759.4859,903.3938" fill="#FFFDE7" style="stroke:#181818;stroke-width:0.5;"/><text fill="#000000" font-family="sans-serif" font-size="14" lengthAdjust="spacing" textLength="72.6729" x="764.54" y="922.7534">SendCloud</text><text fill="#000000" font-family="sans-serif" font-size="14" lengthAdjust="spacing" textLength="120.9277" x="764.54" y="939.2417">api.sendcloud.net</text></g><g class="entity" data-qualified-name="GMN35" data-source-line="75" id="ent0036"><path d="M750.43,1035.8883 L750.43,1075.1583 L714.25,1079.1583 L750.43,1083.1583 L750.43,1122.441 A0,0 0 0 0 750.43,1122.441 L939.5731,1122.441 A0,0 0 0 0 939.5731,1122.441 L939.5731,1045.8883 L929.5731,1035.8883 L750.43,1035.8883 A0,0 0 0 0 750.43,1035.8883" fill="#FEFFDD" style="stroke:#181818;stroke-width:0.5;"/><path d="M929.5731,1035.8883 L929.5731,1045.8883 L939.5731,1045.8883 L929.5731,1035.8883" fill="#FEFFDD" style="stroke:#181818;stroke-width:0.5;"/><text fill="#000000" font-family="sans-serif" font-size="13" lengthAdjust="spacing" textLength="156" x="756.43" y="1053.4566">&#21807;&#19968;&#25345;&#20037;&#23618;&#12290;&#24130;&#31561;&#19977;&#23618;&#20043;&#19968;</text><text fill="#000000" font-family="sans-serif" font-size="13" lengthAdjust="spacing" textLength="114.0991" x="756.43" y="1068.7672">&#65288;signal claim&#65289;&#33853;</text><text fill="#000000" font-family="sans-serif" font-size="13" lengthAdjust="spacing" textLength="155.2192" x="756.43" y="1084.0777">signal_idempotency &#34920;&#65292;</text><text fill="#000000" font-family="sans-serif" font-size="13" lengthAdjust="spacing" textLength="149.0684" x="756.43" y="1099.3883">Postgres &#21807;&#19968;&#32034;&#24341;&#20828;&#24213;&#12290;</text><text fill="#000000" font-family="sans-serif" font-size="13" lengthAdjust="spacing" textLength="168.1431" x="756.43" y="1114.6988">Redis &#20165;&#25991;&#26723;&#22791;&#36873;&#65292;&#26410;&#25509;&#32447;&#12290;</text></g><g class="entity" data-qualified-name="GMN38" data-source-line="83" id="ent0039"><path d="M1041.34,556.5383 L1041.34,627.7805 L1252.6618,627.7805 L1252.6618,566.5383 L1242.6618,556.5383 L1041.34,556.5383" fill="#FEFFDD" style="stroke:#181818;stroke-width:0.5;"/><path d="M1242.6618,556.5383 L1242.6618,566.5383 L1252.6618,566.5383 L1242.6618,556.5383" fill="#FEFFDD" style="stroke:#181818;stroke-width:1;"/><text fill="#000000" font-family="sans-serif" font-size="13" lengthAdjust="spacing" textLength="179.8354" x="1047.34" y="574.1066">openclacky-ext &#23646;&#29992;&#25143;&#20391;&#25193;&#23637;</text><text fill="#000000" font-family="sans-serif" font-size="13" lengthAdjust="spacing" textLength="186.9131" x="1047.34" y="589.4172">&#65288;OpenClacky &#8805;1.3.7&#65289;&#65292;&#19981;&#26159;</text><text fill="#000000" font-family="sans-serif" font-size="13" lengthAdjust="spacing" textLength="174.4907" x="1047.34" y="604.7277">&#24179;&#21488;&#36816;&#34892;&#26102;&#23481;&#22120;&#65307;&#24179;&#21488;&#32463; MCP</text><text fill="#000000" font-family="sans-serif" font-size="13" lengthAdjust="spacing" textLength="190.3218" x="1047.34" y="620.0383">&#24037;&#20855;&#38754;&#19982;&#20854;&#21327;&#20316;&#65288;D6 &#24418;&#24577; X&#65289;&#12290;</text></g><!--link Browser to WEB--><g class="link" data-entity-1="ent0001" data-entity-2="ent0007" data-link-type="dependency" data-source-line="58" id="lnk20"><path d="M278,136.2283 C278,154.6483 278,177.0364 278,200.3241 C278,211.9679 278,223.8366 278,235.5466 C278,238.4741 278,241.3917 278,244.2934 C278,245.7442 278,247.1911 278,248.6332 C278,248.9938 278,244.354 278,244.7139" fill="none" id="Browser-to-WEB" style="stroke:#455A64;stroke-width:1;"/><polygon fill="#455A64" points="278,249.7139,282,240.7139,278,244.7139,274,240.7139,278,249.7139" style="stroke:#455A64;stroke-width:1;stroke-linejoin:miter;stroke-miterlimit:10;"/><text fill="#000000" font-family="sans-serif" font-size="13" lengthAdjust="spacing" textLength="92.1807" x="279" y="179.5266">HTTPS&#65288;&#39029;&#38754;&#65289;</text></g><!--link MP to MINI--><g class="link" data-entity-1="ent0002" data-entity-2="ent0009" data-link-type="dependency" data-source-line="59" id="lnk21"><path d="M566.88,136.3683 C566.52,146.1383 566.19,156.3883 566,165.9583 C565.5975,186.2733 565.9988,207.8233 566.8325,228.7702 C567.0409,234.0069 567.2764,239.2059 567.5331,244.3385 C567.5973,245.6217 567.6628,246.9007 567.7295,248.1751 C567.7462,248.4937 567.4986,243.819 567.5154,244.137" fill="none" id="MP-to-MINI" style="stroke:#455A64;stroke-width:1;"/><polygon fill="#455A64" points="567.7798,249.13,571.2984,239.9311,567.5154,244.137,563.3096,240.3541,567.7798,249.13" style="stroke:#455A64;stroke-width:1;stroke-linejoin:miter;stroke-miterlimit:10;"/><text fill="#000000" font-family="sans-serif" font-size="13" lengthAdjust="spacing" textLength="52" x="567" y="179.5266">&#23487;&#20027;&#28210;&#26579;</text></g><!--link WEB to GQL--><g class="link" data-entity-1="ent0007" data-entity-2="ent0012" data-link-type="dependency" data-source-line="60" id="lnk22"><path d="M276.2026,403.0157 C275.9466,404.1187 275.671,405.2197 275.3747,406.3162 C274.782,408.5093 274.1062,410.6847 273.3372,412.8227 C270.2613,421.3745 265.695,429.3283 259,435.4283 C239.44,453.2483 220.47,426.6483 200,443.4283 C166.11,471.1983 155.2342,517.7591 151.4142,552.0091" fill="none" id="WEB-to-GQL" style="stroke:#455A64;stroke-width:1;"/><polygon fill="#455A64" points="150.86,556.9783,155.833,548.4771,151.4142,552.0091,147.8823,547.5904,150.86,556.9783" style="stroke:#455A64;stroke-width:1;stroke-linejoin:miter;stroke-miterlimit:10;"/><text fill="#000000" font-family="sans-serif" font-size="13" lengthAdjust="spacing" textLength="136.8999" x="201" y="464.4966">GraphQL&#65288;cookie JWT</text><text fill="#000000" font-family="sans-serif" font-size="13" lengthAdjust="spacing" textLength="129.0732" x="204.9133" y="479.8072">AshAuthentication&#65289;</text></g><!--link MINI to GQL--><g class="link" data-entity-1="ent0009" data-entity-2="ent0012" data-link-type="dependency" data-source-line="61" id="lnk23"><path d="M574.049,403.0894 C574.016,403.2274 573.9826,403.3653 573.9489,403.5031 C573.6794,404.606 573.3896,405.7059 573.0783,406.8003 C572.4558,408.9891 571.7471,411.1557 570.942,413.2798 C567.7219,421.7764 562.96,429.5933 556,435.4283 C545.33,444.3683 444.39,439.6483 431,443.4283 C387.95,455.5683 384.77,477.3083 342,490.4283 C310.8,499.9883 299.27,486.2083 269,498.4283 C236.28,511.6283 208.6216,533.0351 186.1716,553.6651" fill="none" id="MINI-to-GQL" style="stroke:#455A64;stroke-width:1;"/><polygon fill="#455A64" points="182.49,557.0483,191.8234,553.9039,186.1716,553.6651,186.4104,548.0133,182.49,557.0483" style="stroke:#455A64;stroke-width:1;stroke-linejoin:miter;stroke-miterlimit:10;"/><text fill="#000000" font-family="sans-serif" font-size="13" lengthAdjust="spacing" textLength="187.5605" x="432" y="464.4966">GraphQL&#65288;signInWithPlatform</text><text fill="#000000" font-family="sans-serif" font-size="13" lengthAdjust="spacing" textLength="147.6909" x="451.9348" y="479.8072">+ mini program code&#65289;</text></g><!--link OC to EXT--><g class="link" data-entity-1="ent0003" data-entity-2="ent0005" data-link-type="dependency" data-source-line="62" id="lnk24"><path d="M809.36,136.2283 C846.03,185.0583 900.6474,257.7702 936.2674,305.2002" fill="none" id="OC-to-EXT" style="stroke:#455A64;stroke-width:1;"/><polygon fill="#455A64" points="939.27,309.1983,937.0639,299.5997,936.2674,305.2002,930.6669,304.4038,939.27,309.1983" style="stroke:#455A64;stroke-width:1;stroke-linejoin:miter;stroke-miterlimit:10;"/><text fill="#000000" font-family="sans-serif" font-size="13" lengthAdjust="spacing" textLength="65" x="844.99" y="179.5266">&#26412;&#26426;&#36827;&#31243;&#20869;</text></g><!--link EXT to MCP--><g class="link" data-entity-1="ent0005" data-entity-2="ent0013" data-link-type="dependency" data-source-line="63" id="lnk25"><path d="M898.86,395.8583 C839.98,428.1383 753.49,470.3083 672,490.4283 C640.24,498.2683 555.83,487.4983 525,498.4283 C489.95,510.8483 459.9154,532.8086 435.8554,553.8286" fill="none" id="EXT-to-MCP" style="stroke:#455A64;stroke-width:1;stroke-dasharray:7,7;"/><polygon fill="#455A64" points="432.09,557.1183,441.4994,554.2092,435.8554,553.8286,436.236,548.1846,432.09,557.1183" style="stroke:#455A64;stroke-width:1;stroke-linejoin:miter;stroke-miterlimit:10;"/><text fill="#000000" font-family="sans-serif" font-size="13" lengthAdjust="spacing" textLength="140.0801" x="823.9483" y="456.9966">&#37197;&#32622; MCP URL + token</text><text fill="#000000" font-family="sans-serif" font-size="13" lengthAdjust="spacing" textLength="126.8389" x="830.5689" y="472.3072">&#65288;mcp.json &#27880;&#20837;&#21518;&#30001;</text><text fill="#000000" font-family="sans-serif" font-size="13" lengthAdjust="spacing" textLength="187.6367" x="800.17" y="487.6177">OpenClacky MCP client &#36830;&#25509;&#65289;</text></g><!--link OC to MCP--><g class="link" data-entity-1="ent0003" data-entity-2="ent0013" data-link-type="dependency" data-source-line="64" id="lnk26"><path d="M719.6,136.3983 C703.89,152.1383 688.27,170.8883 678,190.9583 C616.38,311.3483 724.19,399.5783 624,490.4283 C607.65,505.2483 545.7,490.7783 525,498.4283 C490.38,511.2083 460.5832,532.8891 436.5132,553.6891" fill="none" id="OC-to-MCP" style="stroke:#455A64;stroke-width:1;"/><polygon fill="#455A64" points="432.73,556.9583,442.1551,554.1002,436.5132,553.6891,436.9243,548.0472,432.73,556.9583" style="stroke:#455A64;stroke-width:1;stroke-linejoin:miter;stroke-miterlimit:10;"/><text fill="#000000" font-family="sans-serif" font-size="13" lengthAdjust="spacing" textLength="107.0215" x="692.6602" y="350.0166">streamable HTTP</text><text fill="#000000" font-family="sans-serif" font-size="13" lengthAdjust="spacing" textLength="134.3418" x="679" y="365.3272">Authorization: Bearer</text></g><!--link GQL to ENGINE--><g class="link" data-entity-1="ent0012" data-entity-2="ent0015" data-link-type="dependency" data-source-line="65" id="lnk27"><path d="M158.1,627.3183 C162.88,642.4183 169.52,660.0483 178,674.7783 C183.88,684.9983 188.1222,691.2917 195.7222,700.6217" fill="none" id="GQL-to-ENGINE" style="stroke:#455A64;stroke-width:1;"/><polygon fill="#455A64" points="198.88,704.4983,196.2972,694.9941,195.7222,700.6217,190.0946,700.0466,198.88,704.4983" style="stroke:#455A64;stroke-width:1;stroke-linejoin:miter;stroke-miterlimit:10;"/></g><!--link MCP to ENGINE--><g class="link" data-entity-1="ent0013" data-entity-2="ent0015" data-link-type="dependency" data-source-line="66" id="lnk28"><path d="M361.93,627.2483 C338.48,650.0483 311.0353,676.7333 286.0153,701.0533" fill="none" id="MCP-to-ENGINE" style="stroke:#455A64;stroke-width:1;"/><polygon fill="#455A64" points="282.43,704.5383,291.6716,701.1335,286.0153,701.0533,286.0956,695.397,282.43,704.5383" style="stroke:#455A64;stroke-width:1;stroke-linejoin:miter;stroke-miterlimit:10;"/></g><!--link OPS to PG--><g class="link" data-entity-1="ent0014" data-entity-2="ent0018" data-link-type="dependency" data-source-line="67" id="lnk29"><path d="M620.37,618.8483 C622.32,641.4483 624.94,675.2683 626,704.7783 C627.37,742.9583 628.77,752.6283 626,790.7283 C619.79,876.1183 604.2495,969.7199 593.8795,1026.4199" fill="none" id="OPS-to-PG" style="stroke:#455A64;stroke-width:1;"/><polygon fill="#455A64" points="592.98,1031.3383,598.5339,1023.2048,593.8795,1026.4199,590.6644,1021.7655,592.98,1031.3383" style="stroke:#455A64;stroke-width:1;stroke-linejoin:miter;stroke-miterlimit:10;"/></g><!--link ENGINE to PG--><g class="link" data-entity-1="ent0015" data-entity-2="ent0018" data-link-type="dependency" data-source-line="68" id="lnk30"><path d="M314.28,791.0683 C353.51,815.0983 400.9,847.4083 438,882.7283 C485.24,927.7083 525.777,985.0819 552.727,1027.0219" fill="none" id="ENGINE-to-PG" style="stroke:#455A64;stroke-width:1;"/><polygon fill="#455A64" points="555.43,1031.2283,553.9298,1021.4944,552.727,1027.0219,547.1995,1025.8191,555.43,1031.2283" style="stroke:#455A64;stroke-width:1;stroke-linejoin:miter;stroke-miterlimit:10;"/></g><!--link OBR to PG--><g class="link" data-entity-1="ent0016" data-entity-2="ent0018" data-link-type="dependency" data-source-line="69" id="lnk31"><path d="M372.29,969.0983 C409.83,988.4383 449.9654,1009.1079 488.5054,1028.9679" fill="none" id="OBR-to-PG" style="stroke:#455A64;stroke-width:1;"/><polygon fill="#455A64" points="492.95,1031.2583,486.782,1023.58,488.5054,1028.9679,483.1175,1030.6913,492.95,1031.2583" style="stroke:#455A64;stroke-width:1;stroke-linejoin:miter;stroke-miterlimit:10;"/></g><!--link ENGINE to OBR--><g class="link" data-entity-1="ent0015" data-entity-2="ent0016" data-link-type="dependency" data-source-line="70" id="lnk32"><path d="M210.82,791.1083 C201.64,810.3183 195.89,833.0883 205,852.7283 C210.12,863.7883 214.3284,870.2288 223.1084,878.9788" fill="none" id="ENGINE-to-OBR" style="stroke:#455A64;stroke-width:1;"/><polygon fill="#455A64" points="226.65,882.5083,223.0987,873.322,223.1084,878.9788,217.4516,878.9885,226.65,882.5083" style="stroke:#455A64;stroke-width:1;stroke-linejoin:miter;stroke-miterlimit:10;"/><text fill="#000000" font-family="sans-serif" font-size="13" lengthAdjust="spacing" textLength="67.0439" x="206" y="841.7966">&#20837;&#38431; / &#37325;&#25237;</text></g><!--link MAIL to SENDCLOUD--><g class="link" data-entity-1="ent0017" data-entity-2="ent0019" data-link-type="dependency" data-source-line="71" id="lnk33"><path d="M608.57,768.9283 C650.1,779.8983 696.39,796.3883 734,820.7283 C763.4,839.7683 785.9709,866.8274 802.4309,890.0774" fill="none" id="MAIL-to-SENDCLOUD" style="stroke:#455A64;stroke-width:1;"/><polygon fill="#455A64" points="805.32,894.1583,803.3844,884.5015,802.4309,890.0774,796.855,889.124,805.32,894.1583" style="stroke:#455A64;stroke-width:1;stroke-linejoin:miter;stroke-miterlimit:10;"/><text fill="#000000" font-family="sans-serif" font-size="13" lengthAdjust="spacing" textLength="60.2646" x="785.3303" y="834.2966">Req POST</text><text fill="#000000" font-family="sans-serif" font-size="13" lengthAdjust="spacing" textLength="86.3853" x="772.27" y="849.6072">&#65288;prod only&#65289;</text></g><!--link GQL to MAIL--><g class="link" data-entity-1="ent0012" data-entity-2="ent0017" data-link-type="dependency" data-source-line="72" id="lnk34"><path d="M171.1,627.3883 C183.73,644.2083 201.02,663.2883 221,674.7783 C280.31,708.8983 305.84,687.3383 372,704.7783 C377.73,706.2883 378.7683,706.5142 384.6583,708.2242" fill="none" id="GQL-to-MAIL" style="stroke:#455A64;stroke-width:1;"/><polygon fill="#455A64" points="389.46,709.6183,381.9321,703.2676,384.6583,708.2242,379.7016,710.9504,389.46,709.6183" style="stroke:#455A64;stroke-width:1;stroke-linejoin:miter;stroke-miterlimit:10;"/><text fill="#000000" font-family="sans-serif" font-size="13" lengthAdjust="spacing" textLength="78" x="222" y="671.3466">&#19994;&#21153;&#37038;&#20214;&#35302;&#21457;</text></g><!--link USERSIDE to GMN38--><g class="link" data-entity-1="ent0004" data-entity-2="ent0039" data-link-type="association" data-source-line="83" id="lnk40"><path d="M1147,419.6583 C1147,420.9218 1147,422.1951 1147,423.4777 C1147,426.0428 1147,428.6446 1147,431.277 C1147,473.3958 1147,523.3483 1147,556.0683" fill="none" id="USERSIDE-GMN38" style="stroke:#455A64;stroke-width:1;stroke-dasharray:7,7;"/></g><?plantuml-src fLTVJnjN5d_tfxXA7_eGuN488IdILWjcOAaCTh0Zkf8bD1vFx0dZUwSpuq1srHMXwmI7lrsIb2Q4B3GaTDj0qgG4R0ZIVfJit1dxYQ-mvzwPCTFWFXKXBDzxp-_ypl_3f-XFV-0dyYbAn507eZi7zFjjPsx5gNvB7xy_EPoDTw4umPQaOiKuEQp2GxisHtVMdITRJctvvF2HNL-XjPNcnXvzFUFMLvprVu9KJf8d59mNqAII4r19nQfka88XbGH4T0NB6jpVwb2cB04m_pTz6s034PdWwsh1_uWgKoR09NCIHgd13lucxua4xpKr9yW5URmprjKzpjGPf6mf1aW2ACWAaguAe5elVgM1c52ITVP1T1C-yifD9C0VeIIfMevCUT0C1GEvg4_2OXmCPT9GBQN5DqzaKsWSBxlrjq9pPiUkxzdxY_5-Tt6NRdxZlDccbQre2RZEfe5bN2Fb_1bJmzI5IM9CNDV8f2cOQW5BshYQLqewiS1Rjy0O00AlgINKM3v2AM9Q1KCnEU8C83PstpghYn2DKIMlciYkL-pz6ZsOSLzM8IpEmxlEnW_qsTtcTDMf7ZUEZauEvptRaFFTln4JcaBDoe9xjFDX-ZxyqgCLMbsWztVj_Mc0T-PlsmSLG0BKbdBGxApz35dYp5UHJF9AJZ8Lv2w-Sk_jkVLLEhi7d3jZdTqTiIkW3xoiQ4H7bplbIvzrThMe_w6qjLHBKr1yC8xemHkwz2gSlsUITpuHOnaSCITKh4kGZ3mG1SWN213HY84cYn3XqBsXo9Q42w3Yxn44FtqVlVza83RGBrxnxeYHLmp_l5Eyt7-nC_9r22ilMHBtqEz13GnS56DdeSJkInTYiTz0IOP19dqS_rNNfKkztLtmAYB95XoSS-zlExFlijZvTQdnOXQSSWv99ke3GLCnWaVq_Ovzl844vDnxs7pw1WbPJ5yjkRLD--0vtTa40FUdNIuud0faab2_SLw_MGmkzlH08ZXhDTHRKB05FkOYoNWaSkf0dv3z_WK8zVqr2U5eFbdtecRNdjdrLRVwOo1wBIsEfeVwHR3-2hXOz6qDeNtKHQ2AEbWLSKgd395J_P6-VW2mMVpVTv2a60C4waqD8RhubBvSfdU-H_yGeXuIQmtH6oR1_B4kOKK3rqZC9lW4zsliUv6G2PEp5B_CC8U7M44YSXf-DW8NhpkUCJ2LwCqC94U7Wmm20p-sa3MXB1vXRUY6YIvqe_DGfn03TE6pB3wFUdMYQGJ5DHNeSSmniS_tqqT8uGw8_3QMnH_k_2jeHC2JBiz3ExVhFxZBTmAIe-BOw516v91Vd-4NRkfPd94CWhfEELw1J7hs2B87UjAa8kawUCvYRfmgUiuR7XePQa_NPzh1MWhudeTKBYhoH4zWGtFr5-TmndrH3vZ6a_tYe3ZoEqo3Tfl5gI9HCBGwS9zPH1UzaX3RqnXaogucMB9aSM_ELB5LLD2VKTYRdDjvxqZNf5jUGIDeTG6pmQk9Tk33yHHAAyPDnSXY2PTpgZaEoOTCor2aafI39t_9P59P3EhWd5MC8Xby07lEYwVQeO9HlNc82sC9yuspazZ1UCwh-rPffjBjvCVy4OJeuGDdPJ6Blr3p19nbbB708w0Jy0BBlZGVKM99jM3K2hJoih6psLojE0yFkDB0pwboBbtEeSRnOtTxZjwfEDDrjtOSi1171eT6n7P4-BndR1J3io8q--TXOhbpFxi_pJLNdzBPxvor1NflWvUuFpZrSavJ8RvGkpfaw4quCXJmGfvvMs1w29PLJPKibU1nKvRmX-dddb_wHjlHIKyI0dZUbC_Yra17KbxIBURMMT2JvnmoYca5v-2wy7B1BR7WNWWbo73lK2ASjwqnSSwVi-chYIoszn-1aOsDRK1WgLigQp3w5CWT-HPNUnvndzqWEHEqdjqWs8jWmq2diVHgCJN8-fZCJJhNiWuoKrUZ9dpbDr6iU7qcBOxqnnF9Q_ryPlMBboCHVwoWZexFUHlguUcR1hBDZL-RJpRPs1rEyMjUzpsmQ1xR-tLd_nVdwKg4YR0xA1QuyWkFLJsqMbL1Nunbe08XjyjGWTXIPHuuZid0saao1mpXCTKgfZJ9kawC4dC0Qrd8xrbyOs4OoJX7W6OE2DuSQ-LhX9r6ev-pWeDRRqFYNwwD9i3F5fdm6rGmEf2t-T7bHVV-womEZI8c9VDk3VMmxYnkXPHxy6UgdnbC3FLltDuUvFM02BELC_RAXyc6la9fywyGK-ya-0QvtUQ2dK8qAbjGJ50mpRiBphq74PQK_FeqrZtGsRz2gMGwm-rb-Ou8rbZsjHXniHxa9QjNBOqNp-dIjv48XZH4XbeeMeXSPnmGyhRBrce9sw2tiDhxR6Ur3-ROxecG7qr9Gtp_1Nsm0SFvsHn7l3xcuIvOKNqTxjjDw6YqiaPh3zZIYL1hJGwlngothFq78WCzYZs3p4UCjyy-HooBb1ZzO3q1eD_k8OY-Nc_jETxkuLaGoeCFrQqBqOlHos08ABJt5vpLNUODlZ70_nED3UXmUzuYUtBus3jtwqj-qwVljcZb7TGK_BT1AtjqOSa-MWCD_R1q76qwqxVHb_vg7T3_Fm00?></g></svg>