<svg xmlns="http://www.w3.org/2000/svg" xmlns:xlink="http://www.w3.org/1999/xlink" contentStyleType="text/css" data-diagram-type="STATE" height="1032px" preserveAspectRatio="none" style="width:3021px;height:1032px;background:#FFFFFF;" version="1.1" viewBox="0 0 3021 1032" width="3021px" zoomAndPan="magnify"><?plantuml 1.2026.6?><defs/><g><g class="title" data-source-line="9"><text fill="#000000" font-family="sans-serif" font-size="14" font-weight="700" lengthAdjust="spacing" textLength="241.377" x="1386.7765" y="23.5352">&#19994;&#21153;&#23454;&#20307;&#29366;&#24577;&#26426;&#27719;&#24635;&#65288;L2&#65292;&#25353;&#30721;&#29616;&#29366;&#65289;</text></g><!--cluster ENR--><g class="cluster" data-qualified-name="ENR" data-source-line="17" id="ent0001"><path d="M456.43,203.7383 L1567.43,203.7383 A12.5,12.5 0 0 1 1579.93,216.2383 L1579.93,225.2266 L443.93,225.2266 L443.93,216.2383 A12.5,12.5 0 0 1 456.43,203.7383" fill="#F0FDE8"/><path d="M443.93,225.2266 L1579.93,225.2266 L1579.93,1004.6883 A12.5,12.5 0 0 1 1567.43,1017.1883 L456.43,1017.1883 A12.5,12.5 0 0 1 443.93,1004.6883 L443.93,225.2266" fill="#F0FDE8"/><rect fill="none" height="813.45" rx="12.5" ry="12.5" style="stroke:#2E7D32;stroke-width:0.5;" width="1136" x="443.93" y="203.7383"/><line style="stroke:#2E7D32;stroke-width:0.5;" x1="443.93" x2="1579.93" y1="225.2266" y2="225.2266"/><text fill="#000000" font-family="sans-serif" font-size="14" lengthAdjust="spacing" textLength="129.4932" x="947.1834" y="221.2734">Enrollment&#65288;&#25253;&#21517;&#65289;</text></g><!--cluster SPS--><g class="cluster" data-qualified-name="SPS" data-source-line="28" id="ent0002"><path d="M1654.43,752.2583 L1981.43,752.2583 A12.5,12.5 0 0 1 1993.93,764.7583 L1993.93,773.7466 L1641.93,773.7466 L1641.93,764.7583 A12.5,12.5 0 0 1 1654.43,752.2583" fill="#F0FDE8"/><path d="M1641.93,773.7466 L1993.93,773.7466 L1993.93,1004.6883 A12.5,12.5 0 0 1 1981.43,1017.1883 L1654.43,1017.1883 A12.5,12.5 0 0 1 1641.93,1004.6883 L1641.93,773.7466" fill="#F0FDE8"/><rect fill="none" height="264.93" rx="12.5" ry="12.5" style="stroke:#2E7D32;stroke-width:0.5;" width="352" x="1641.93" y="752.2583"/><line style="stroke:#2E7D32;stroke-width:0.5;" x1="1641.93" x2="1993.93" y1="773.7466" y2="773.7466"/><text fill="#000000" font-family="sans-serif" font-size="14" lengthAdjust="spacing" textLength="139.7881" x="1748.036" y="769.7934">Sponsorship&#65288;&#36190;&#21161;&#65289;</text></g><!--cluster WFD--><g class="cluster" data-qualified-name="WFD" data-source-line="45" id="ent0004"><path d="M2478.43,211.7383 L2716.43,211.7383 A12.5,12.5 0 0 1 2728.93,224.2383 L2728.93,233.2266 L2465.93,233.2266 L2465.93,224.2383 A12.5,12.5 0 0 1 2478.43,211.7383" fill="#F0FDE8"/><path d="M2465.93,233.2266 L2728.93,233.2266 L2728.93,996.6883 A12.5,12.5 0 0 1 2716.43,1009.1883 L2478.43,1009.1883 A12.5,12.5 0 0 1 2465.93,996.6883 L2465.93,233.2266" fill="#F0FDE8"/><rect fill="none" height="797.45" rx="12.5" ry="12.5" style="stroke:#2E7D32;stroke-width:0.5;" width="263" x="2465.93" y="211.7383"/><line style="stroke:#2E7D32;stroke-width:0.5;" x1="2465.93" x2="2728.93" y1="233.2266" y2="233.2266"/><text fill="#000000" font-family="sans-serif" font-size="14" lengthAdjust="spacing" textLength="213.8555" x="2490.5023" y="229.2734">WorkflowDefinition&#65288;&#27969;&#31243;&#23450;&#20041;&#65289;</text></g><!--cluster IVB--><g class="cluster" data-qualified-name="IVB" data-source-line="52" id="ent0005"><path d="M2058.43,554.9783 L2233.43,554.9783 A12.5,12.5 0 0 1 2245.93,567.4783 L2245.93,576.4666 L2045.93,576.4666 L2045.93,567.4783 A12.5,12.5 0 0 1 2058.43,554.9783" fill="#F0FDE8"/><path d="M2045.93,576.4666 L2245.93,576.4666 L2245.93,659.4783 A12.5,12.5 0 0 1 2233.43,671.9783 L2058.43,671.9783 A12.5,12.5 0 0 1 2045.93,659.4783 L2045.93,576.4666" fill="#F0FDE8"/><rect fill="none" height="117" rx="12.5" ry="12.5" style="stroke:#2E7D32;stroke-width:0.5;" width="200" x="2045.93" y="554.9783"/><line style="stroke:#2E7D32;stroke-width:0.5;" x1="2045.93" x2="2245.93" y1="576.4666" y2="576.4666"/><text fill="#000000" font-family="sans-serif" font-size="14" lengthAdjust="spacing" textLength="157.9307" x="2066.9647" y="572.5134">InviteBatch&#65288;&#36992;&#35831;&#25209;&#27425;&#65289;</text></g><!--cluster RSO--><g class="cluster" data-qualified-name="RSO" data-source-line="58" id="ent0006"><path d="M2765.43,211.7383 L2994.43,211.7383 A12.5,12.5 0 0 1 3006.93,224.2383 L3006.93,233.2266 L2752.93,233.2266 L2752.93,224.2383 A12.5,12.5 0 0 1 2765.43,211.7383" fill="#F0FDE8"/><path d="M2752.93,233.2266 L3006.93,233.2266 L3006.93,848.7583 A12.5,12.5 0 0 1 2994.43,861.2583 L2765.43,861.2583 A12.5,12.5 0 0 1 2752.93,848.7583 L2752.93,233.2266" fill="#F0FDE8"/><rect fill="none" height="649.52" rx="12.5" ry="12.5" style="stroke:#2E7D32;stroke-width:0.5;" width="254" x="2752.93" y="211.7383"/><line style="stroke:#2E7D32;stroke-width:0.5;" x1="2752.93" x2="3006.93" y1="233.2266" y2="233.2266"/><text fill="#000000" font-family="sans-serif" font-size="14" lengthAdjust="spacing" textLength="192.4453" x="2783.7073" y="229.2734">ResearchOutput&#65288;&#25945;&#30740;&#20135;&#20986;&#65289;</text></g><g class="start_entity" data-qualified-name="ENR..start.ENR" data-source-line="18" id="ent0007"><ellipse cx="1217.93" cy="256.7383" fill="#222222" rx="10" ry="10" style="stroke:#222222;stroke-width:1;"/></g><g class="entity" data-qualified-name="ENR.pending" data-source-line="18" id="ent0008"><rect fill="#F0FDE8" height="50" rx="12.5" ry="12.5" style="stroke:#2E7D32;stroke-width:0.5;" width="75.5762" x="1129.14" y="597.9783"/><line style="stroke:#2E7D32;stroke-width:0.5;" x1="1129.14" x2="1204.7162" y1="624.4666" y2="624.4666"/><text fill="#000000" font-family="sans-serif" font-size="14" lengthAdjust="spacing" textLength="55.5762" x="1139.14" y="616.5134">pending</text></g><g class="entity" data-qualified-name="ENR.confirmed" data-source-line="19" id="ent0010"><rect fill="#F0FDE8" height="50" rx="12.5" ry="12.5" style="stroke:#2E7D32;stroke-width:0.5;" width="89.0635" x="1448.4" y="795.2583"/><line style="stroke:#2E7D32;stroke-width:0.5;" x1="1448.4" x2="1537.4635" y1="821.7466" y2="821.7466"/><text fill="#000000" font-family="sans-serif" font-size="14" lengthAdjust="spacing" textLength="69.0635" x="1458.4" y="813.7934">confirmed</text></g><g class="entity" data-qualified-name="ENR.rejected" data-source-line="21" id="ent0013"><rect fill="#F0FDE8" height="50" rx="12.5" ry="12.5" style="stroke:#2E7D32;stroke-width:0.5;" width="74.6055" x="1034.63" y="795.2583"/><line style="stroke:#2E7D32;stroke-width:0.5;" x1="1034.63" x2="1109.2355" y1="821.7466" y2="821.7466"/><text fill="#000000" font-family="sans-serif" font-size="14" lengthAdjust="spacing" textLength="54.6055" x="1044.63" y="813.7934">rejected</text></g><g class="entity" data-qualified-name="ENR.expired" data-source-line="22" id="ent0015"><rect fill="#F0FDE8" height="50" rx="12.5" ry="12.5" style="stroke:#2E7D32;stroke-width:0.5;" width="71.584" x="599.14" y="795.2583"/><line style="stroke:#2E7D32;stroke-width:0.5;" x1="599.14" x2="670.724" y1="821.7466" y2="821.7466"/><text fill="#000000" font-family="sans-serif" font-size="14" lengthAdjust="spacing" textLength="51.584" x="609.14" y="813.7934">expired</text></g><g class="entity" data-qualified-name="ENR.cancelled" data-source-line="23" id="ent0017"><rect fill="#F0FDE8" height="50" rx="12.5" ry="12.5" style="stroke:#2E7D32;stroke-width:0.5;" width="83.2666" x="1279.3" y="943.1883"/><line style="stroke:#2E7D32;stroke-width:0.5;" x1="1279.3" x2="1362.5666" y1="969.6766" y2="969.6766"/><text fill="#000000" font-family="sans-serif" font-size="14" lengthAdjust="spacing" textLength="63.2666" x="1289.3" y="961.7234">cancelled</text></g><g class="start_entity" data-qualified-name="SPS..start.SPS" data-source-line="29" id="ent0020"><ellipse cx="1675.93" cy="820.2583" fill="#222222" rx="10" ry="10" style="stroke:#222222;stroke-width:1;"/></g><g class="entity" data-qualified-name="SPS.active" data-source-line="30" id="ent0022"><rect fill="#F0FDE8" height="50" rx="12.5" ry="12.5" style="stroke:#2E7D32;stroke-width:0.5;" width="59.2314" x="1732.32" y="795.2583"/><line style="stroke:#2E7D32;stroke-width:0.5;" x1="1732.32" x2="1791.5514" y1="821.7466" y2="821.7466"/><text fill="#000000" font-family="sans-serif" font-size="14" lengthAdjust="spacing" textLength="39.2314" x="1742.32" y="813.7934">active</text></g><g class="entity" data-qualified-name="SPS.ended" data-source-line="33" id="ent0026"><rect fill="#F0FDE8" height="50" rx="12.5" ry="12.5" style="stroke:#2E7D32;stroke-width:0.5;" width="61.9111" x="1669.98" y="943.1883"/><line style="stroke:#2E7D32;stroke-width:0.5;" x1="1669.98" x2="1731.8911" y1="969.6766" y2="969.6766"/><text fill="#000000" font-family="sans-serif" font-size="14" lengthAdjust="spacing" textLength="41.9111" x="1679.98" y="961.7234">ended</text></g><g class="start_entity" data-qualified-name="WFD..start.WFD" data-source-line="46" id="ent0037"><ellipse cx="2524.93" cy="256.7383" fill="#222222" rx="10" ry="10" style="stroke:#222222;stroke-width:1;"/></g><g class="entity" data-qualified-name="WFD.draft" data-source-line="46" id="ent0038"><rect fill="#F0FDE8" height="50" rx="12.5" ry="12.5" style="stroke:#2E7D32;stroke-width:0.5;" width="52.6553" x="2498.6" y="597.9783"/><line style="stroke:#2E7D32;stroke-width:0.5;" x1="2498.6" x2="2551.2553" y1="624.4666" y2="624.4666"/><text fill="#000000" font-family="sans-serif" font-size="14" lengthAdjust="spacing" textLength="32.6553" x="2508.6" y="616.5134">draft</text></g><g class="entity" data-qualified-name="WFD.published" data-source-line="47" id="ent0040"><rect fill="#F0FDE8" height="50" rx="12.5" ry="12.5" style="stroke:#2E7D32;stroke-width:0.5;" width="86.8418" x="2481.51" y="795.2583"/><line style="stroke:#2E7D32;stroke-width:0.5;" x1="2481.51" x2="2568.3518" y1="821.7466" y2="821.7466"/><text fill="#000000" font-family="sans-serif" font-size="14" lengthAdjust="spacing" textLength="66.8418" x="2491.51" y="813.7934">published</text></g><g class="entity" data-qualified-name="WFD.archived" data-source-line="48" id="ent0042"><rect fill="#F0FDE8" height="50" rx="12.5" ry="12.5" style="stroke:#2E7D32;stroke-width:0.5;" width="77.2236" x="2558.32" y="943.1883"/><line style="stroke:#2E7D32;stroke-width:0.5;" x1="2558.32" x2="2635.5436" y1="969.6766" y2="969.6766"/><text fill="#000000" font-family="sans-serif" font-size="14" lengthAdjust="spacing" textLength="57.2236" x="2568.32" y="961.7234">archived</text></g><g class="start_entity" data-qualified-name="IVB..start.IVB" data-source-line="53" id="ent0044"><ellipse cx="2192.93" cy="622.9783" fill="#222222" rx="10" ry="10" style="stroke:#222222;stroke-width:1;"/></g><g class="entity" data-qualified-name="IVB.disabled" data-source-line="54" id="ent0046"><rect fill="#F0FDE8" height="50" rx="12.5" ry="12.5" style="stroke:#2E7D32;stroke-width:0.5;" width="77.1963" x="2070.33" y="597.9783"/><line style="stroke:#2E7D32;stroke-width:0.5;" x1="2070.33" x2="2147.5263" y1="624.4666" y2="624.4666"/><text fill="#000000" font-family="sans-serif" font-size="14" lengthAdjust="spacing" textLength="57.1963" x="2080.33" y="616.5134">disabled</text></g><g class="start_entity" data-qualified-name="RSO..start.RSO" data-source-line="59" id="ent0048"><ellipse cx="2803.93" cy="256.7383" fill="#222222" rx="10" ry="10" style="stroke:#222222;stroke-width:1;"/></g><g class="entity" data-qualified-name="RSO.drafted" data-source-line="59" id="ent0049"><rect fill="#F0FDE8" height="50" rx="12.5" ry="12.5" style="stroke:#2E7D32;stroke-width:0.5;" width="69.2666" x="2769.3" y="597.9783"/><line style="stroke:#2E7D32;stroke-width:0.5;" x1="2769.3" x2="2838.5666" y1="624.4666" y2="624.4666"/><text fill="#000000" font-family="sans-serif" font-size="14" lengthAdjust="spacing" textLength="49.2666" x="2779.3" y="616.5134">drafted</text></g><g class="entity" data-qualified-name="RSO.ready" data-source-line="60" id="ent0051"><rect fill="#F0FDE8" height="50" rx="12.5" ry="12.5" style="stroke:#2E7D32;stroke-width:0.5;" width="57.3857" x="2772.24" y="795.2583"/><line style="stroke:#2E7D32;stroke-width:0.5;" x1="2772.24" x2="2829.6257" y1="821.7466" y2="821.7466"/><text fill="#000000" font-family="sans-serif" font-size="14" lengthAdjust="spacing" textLength="37.3857" x="2782.24" y="813.7934">ready</text></g><g class="entity" data-qualified-name="SPI" data-source-line="37" id="ent0003"><path d="M57.38,44.4883 L368.4772,44.4883 A12.5,12.5 0 0 1 380.9772,56.9883 L380.9772,70.9766 L44.88,70.9766 L44.88,56.9883 A12.5,12.5 0 0 1 57.38,44.4883" fill="#F0FDE8"/><path d="M44.88,70.9766 L380.9772,70.9766 L380.9772,456.4766 A12.5,12.5 0 0 1 368.4772,468.9766 L57.38,468.9766 A12.5,12.5 0 0 1 44.88,456.4766 L44.88,70.9766" fill="#F0FDE8"/><rect fill="none" height="424.4883" rx="12.5" ry="12.5" style="stroke:#2E7D32;stroke-width:0.5;" width="336.0972" x="44.88" y="44.4883"/><line style="stroke:#2E7D32;stroke-width:0.5;" x1="44.88" x2="380.9772" y1="70.9766" y2="70.9766"/><text fill="#000000" font-family="sans-serif" font-size="14" lengthAdjust="spacing" textLength="201.1475" x="112.3549" y="63.0234">SpeakerInvitation&#65288;&#28436;&#35762;&#36992;&#35831;&#65289;</text><g class="start_entity" data-qualified-name="SPI..start.SPI" data-source-line="38" id="ent0028"><ellipse cx="167.55" cy="91.9766" fill="#222222" rx="10" ry="10" style="stroke:#222222;stroke-width:1;"/></g><g class="entity" data-qualified-name="SPI.invited" data-source-line="38" id="ent0029"><rect fill="#F0FDE8" height="50" rx="12.5" ry="12.5" style="stroke:#2E7D32;stroke-width:0.5;" width="65.876" x="134.62" y="169.9766"/><line style="stroke:#2E7D32;stroke-width:0.5;" x1="134.62" x2="200.496" y1="196.4648" y2="196.4648"/><text fill="#000000" font-family="sans-serif" font-size="14" lengthAdjust="spacing" textLength="45.876" x="144.62" y="188.5117">invited</text></g><g class="entity" data-qualified-name="SPI.accepted" data-source-line="39" id="ent0031"><rect fill="#F0FDE8" height="50" rx="12.5" ry="12.5" style="stroke:#2E7D32;stroke-width:0.5;" width="80.5322" x="62.29" y="287.9766"/><line style="stroke:#2E7D32;stroke-width:0.5;" x1="62.29" x2="142.8222" y1="314.4648" y2="314.4648"/><text fill="#000000" font-family="sans-serif" font-size="14" lengthAdjust="spacing" textLength="60.5322" x="72.29" y="306.5117">accepted</text></g><g class="entity" data-qualified-name="SPI.declined" data-source-line="40" id="ent0033"><rect fill="#F0FDE8" height="50" rx="12.5" ry="12.5" style="stroke:#2E7D32;stroke-width:0.5;" width="77.1758" x="194.97" y="287.9766"/><line style="stroke:#2E7D32;stroke-width:0.5;" x1="194.97" x2="272.1458" y1="314.4648" y2="314.4648"/><text fill="#000000" font-family="sans-serif" font-size="14" lengthAdjust="spacing" textLength="57.1758" x="204.97" y="306.5117">declined</text></g><g class="entity" data-qualified-name="SPI.completed" data-source-line="41" id="ent0035"><rect fill="#F0FDE8" height="50" rx="12.5" ry="12.5" style="stroke:#2E7D32;stroke-width:0.5;" width="91.3467" x="56.88" y="405.9766"/><line style="stroke:#2E7D32;stroke-width:0.5;" x1="56.88" x2="148.2267" y1="432.4648" y2="432.4648"/><text fill="#000000" font-family="sans-serif" font-size="14" lengthAdjust="spacing" textLength="71.3467" x="66.88" y="424.5117">completed</text></g><!--link *start*SPI to invited--><g class="link" data-entity-1="ent0028" data-entity-2="ent0029" data-link-type="dependency" data-source-line="38" id="lnk30"><path d="M167.55,102.2966 C167.55,117.4366 167.55,142.8566 167.55,164.4966" fill="none" id="*start*SPI-to-invited" style="stroke:#181818;stroke-width:1;"/><polygon fill="#181818" points="167.55,169.4966,171.55,160.4966,167.55,164.4966,163.55,160.4966,167.55,169.4966" style="stroke:#181818;stroke-width:1;stroke-linejoin:miter;stroke-miterlimit:10;"/><text fill="#000000" font-family="sans-serif" font-size="13" lengthAdjust="spacing" textLength="104.0317" x="210.2478" y="133.5449">create_invitation</text><text fill="#000000" font-family="sans-serif" font-size="13" lengthAdjust="spacing" textLength="187.4272" x="168.55" y="148.8555">&#65288;Owner &#21518;&#21488;&#65292;&#20107;&#21153;&#20869;&#36215; run&#65289;</text></g><!--link invited to accepted--><g class="link" data-entity-1="ent0029" data-entity-2="ent0031" data-link-type="dependency" data-source-line="39" id="lnk32"><path d="M134.36,209.6166 C122.47,216.3066 110.33,225.6266 103.55,237.9766 C95.33,252.9566 94.7557,267.387 96.6957,282.557" fill="none" id="invited-to-accepted" style="stroke:#181818;stroke-width:1;"/><polygon fill="#181818" points="97.33,287.5166,100.156,278.0819,96.6957,282.557,92.2207,279.0967,97.33,287.5166" style="stroke:#181818;stroke-width:1;stroke-linejoin:miter;stroke-miterlimit:10;"/><text fill="#000000" font-family="sans-serif" font-size="13" lengthAdjust="spacing" textLength="106.3105" x="104.55" y="251.5449">accept_invitation</text><text fill="#000000" font-family="sans-serif" font-size="13" lengthAdjust="spacing" textLength="104.8696" x="105.2705" y="266.8555">token &#19968;&#27425;&#24615;&#22833;&#25928;</text></g><!--link invited to declined--><g class="link" data-entity-1="ent0029" data-entity-2="ent0033" data-link-type="dependency" data-source-line="40" id="lnk34"><path d="M197.38,220.2866 C202.66,225.6766 207.7,231.6666 211.55,237.9766 C220.85,253.1866 225.391,267.6757 228.601,282.7857" fill="none" id="invited-to-declined" style="stroke:#181818;stroke-width:1;"/><polygon fill="#181818" points="229.64,287.6766,231.6824,278.0418,228.601,282.7857,223.8571,279.7042,229.64,287.6766" style="stroke:#181818;stroke-width:1;stroke-linejoin:miter;stroke-miterlimit:10;"/><text fill="#000000" font-family="sans-serif" font-size="13" lengthAdjust="spacing" textLength="110.4365" x="228.8923" y="251.5449">decline_invitation</text><text fill="#000000" font-family="sans-serif" font-size="13" lengthAdjust="spacing" textLength="116.5811" x="225.82" y="266.8555">&#65288;run &#32456;&#24577; failed&#65289;</text></g><!--link accepted to completed--><g class="link" data-entity-1="ent0031" data-entity-2="ent0035" data-link-type="dependency" data-source-line="41" id="lnk36"><path d="M102.55,338.2966 C102.55,358.0966 102.55,380.9066 102.55,400.6866" fill="none" id="accepted-to-completed" style="stroke:#181818;stroke-width:1;"/><polygon fill="#181818" points="102.55,405.6866,106.55,396.6866,102.55,400.6866,98.55,396.6866,102.55,405.6866" style="stroke:#181818;stroke-width:1;stroke-linejoin:miter;stroke-miterlimit:10;"/><text fill="#000000" font-family="sans-serif" font-size="13" lengthAdjust="spacing" textLength="121.3291" x="103.55" y="369.5449">complete_speaking</text><text fill="#000000" font-family="sans-serif" font-size="13" lengthAdjust="spacing" textLength="117.6729" x="105.3781" y="384.8555">&#65288;run succeeded&#65289;</text></g></g><g class="entity" data-qualified-name="GMN54" data-source-line="65" id="ent0055"><path d="M1604.4,579.7083 L1604.4,666.261 L2021.462,666.261 L2021.462,589.7083 L2011.462,579.7083 L1604.4,579.7083" fill="#FEFFDD" style="stroke:#181818;stroke-width:0.5;"/><path d="M2011.462,579.7083 L2011.462,589.7083 L2021.462,589.7083 L2011.462,579.7083" fill="#FEFFDD" style="stroke:#181818;stroke-width:1;"/><text fill="#000000" font-family="sans-serif" font-size="13" font-weight="700" lengthAdjust="spacing" textLength="202.1792" x="1610.4" y="597.2766">&#30721;&#29616;&#29366;&#65288;enrollment.ex:53-58&#65289;</text><text fill="#000000" font-family="sans-serif" font-size="13" lengthAdjust="spacing" textLength="52" x="1812.5792" y="597.2766">&#65306;&#29366;&#24577;&#38598;</text><text fill="#000000" font-family="sans-serif" font-size="13" lengthAdjust="spacing" textLength="367.7197" x="1610.4" y="612.5872">[pending / confirmed / rejected / expired / cancelled]&#8212;&#8212;</text><text fill="#000000" font-family="sans-serif" font-size="13" lengthAdjust="spacing" textLength="322.8418" x="1610.4" y="627.8977">&#26080; draft/submitted&#65288;&#21019;&#24314;&#21363; pending/confirmed&#65289;&#12290;</text><text fill="#000000" font-family="sans-serif" font-size="13" lengthAdjust="spacing" textLength="396.062" x="1610.4" y="643.2083">v1 &#23454;&#20307;&#33258;&#24207;&#36143;&#65306;&#19981;&#24314; WorkflowRun&#65288;workflow_run_id &#39044;&#30041;&#20108;&#26399;&#65292;</text><text fill="#000000" font-family="sans-serif" font-size="13" lengthAdjust="spacing" textLength="134.3228" x="1610.4" y="658.5188">enrollment.ex:50&#65289;&#12290;</text></g><g class="entity" data-qualified-name="GMN57" data-source-line="73" id="ent0058"><path d="M6,595.0183 L6,650.9499 A0,0 0 0 0 6,650.9499 L419.8628,650.9499 A0,0 0 0 0 419.8628,650.9499 L419.8628,605.0183 L409.8628,595.0183 L216.93,595.0183 L212.93,469.3583 L208.93,595.0183 L6,595.0183 A0,0 0 0 0 6,595.0183" fill="#FEFFDD" style="stroke:#181818;stroke-width:0.5;"/><path d="M409.8628,595.0183 L409.8628,605.0183 L419.8628,605.0183 L409.8628,595.0183" fill="#FEFFDD" style="stroke:#181818;stroke-width:0.5;"/><text fill="#000000" font-family="sans-serif" font-size="13" font-weight="700" lengthAdjust="spacing" textLength="227.3032" x="12" y="612.5866">&#30721;&#29616;&#29366;&#65288;speaker_invitation.ex:38&#65289;</text><text fill="#000000" font-family="sans-serif" font-size="13" lengthAdjust="spacing" textLength="13" x="239.3032" y="612.5866">&#65306;</text><text fill="#000000" font-family="sans-serif" font-size="13" lengthAdjust="spacing" textLength="392.8628" x="12" y="627.8972">[invited / accepted / declined / completed]&#8212;&#8212;&#26080; expired &#24577;&#65307;</text><text fill="#000000" font-family="sans-serif" font-size="13" lengthAdjust="spacing" textLength="355.9385" x="12" y="643.2077">expires_at &#20165;&#20316; token &#26657;&#39564;&#35859;&#35789;&#65292;&#19981;&#33853;&#29366;&#24577;&#65288;:127-128&#65289;&#12290;</text></g><g class="entity" data-qualified-name="GMN60" data-source-line="79" id="ent0061"><path d="M2033.14,792.2883 L2033.14,848.2199 L2446.7298,848.2199 L2446.7298,802.2883 L2436.7298,792.2883 L2033.14,792.2883" fill="#FEFFDD" style="stroke:#181818;stroke-width:0.5;"/><path d="M2436.7298,792.2883 L2436.7298,802.2883 L2446.7298,802.2883 L2436.7298,792.2883" fill="#FEFFDD" style="stroke:#181818;stroke-width:1;"/><text fill="#000000" font-family="sans-serif" font-size="13" font-weight="700" lengthAdjust="spacing" textLength="210.3994" x="2039.14" y="809.8566">&#30721;&#29616;&#29366;&#65288;invite_batch.ex:48-54&#65289;</text><text fill="#000000" font-family="sans-serif" font-size="13" lengthAdjust="spacing" textLength="152.0391" x="2249.5394" y="809.8566">&#65306;[active / disabled]&#8212;&#8212;</text><text fill="#000000" font-family="sans-serif" font-size="13" lengthAdjust="spacing" textLength="392.5898" x="2039.14" y="825.1672">&#26080; exhausted &#24577;&#65307;&#37197;&#39069;&#23613; = remaining_quota=0 &#30340;&#26465;&#20214; UPDATE</text><text fill="#000000" font-family="sans-serif" font-size="13" lengthAdjust="spacing" textLength="317.7256" x="2039.14" y="840.4777">&#25187;&#20943;&#22833;&#36133;&#65288;enrollment.ex:582-603&#65289;&#65292;&#38750;&#29366;&#24577;&#36801;&#31227;&#12290;</text></g><g class="entity" data-qualified-name="GMN63" data-source-line="85" id="ent0064"><path d="M2018.04,940.2183 L2018.04,996.1499 L2439.8183,996.1499 L2439.8183,950.2183 L2429.8183,940.2183 L2018.04,940.2183" fill="#FEFFDD" style="stroke:#181818;stroke-width:0.5;"/><path d="M2429.8183,940.2183 L2429.8183,950.2183 L2439.8183,950.2183 L2429.8183,940.2183" fill="#FEFFDD" style="stroke:#181818;stroke-width:1;"/><text fill="#000000" font-family="sans-serif" font-size="13" font-weight="700" lengthAdjust="spacing" textLength="59.5728" x="2024.04" y="957.7866">v1 &#20027;&#36335;&#24452;</text><text fill="#000000" font-family="sans-serif" font-size="13" lengthAdjust="spacing" textLength="213.2622" x="2083.6128" y="957.7866">&#65306;pending &#8594; active&#65288;&#23457;&#25209;&#36890;&#36807;&#65289;&#12290;</text><text fill="#000000" font-family="sans-serif" font-size="13" lengthAdjust="spacing" textLength="400.7783" x="2024.04" y="973.0972">&#25910;&#27454;/&#25903;&#20184; = &#20108;&#26399;&#65288;F4&#65289;&#65306;&#29366;&#24577;&#26426;&#38656;&#25554; payment_pending &#8594; paid&#65307;</text><text fill="#000000" font-family="sans-serif" font-size="13" lengthAdjust="spacing" textLength="240.4746" x="2024.04" y="988.4077">v1 &#20840;&#24211;&#26080;&#25903;&#20184;&#29366;&#24577;&#65288;amount &#20165;&#30331;&#35760;&#65289;&#12290;</text></g><!--link *start*ENR to pending--><g class="link" data-entity-1="ent0007" data-entity-2="ent0008" data-link-type="dependency" data-source-line="18" id="lnk9"><path d="M1211.35,264.4583 C1185.68,291.1783 1092.21,393.5883 1060.93,498.9783 C1056.89,512.6183 1054.99,518.0583 1060.93,530.9783 C1074.85,561.2883 1100.1991,582.5767 1124.5691,598.3067" fill="none" id="*start*ENR-to-pending" style="stroke:#181818;stroke-width:1;"/><polygon fill="#181818" points="1128.77,601.0183,1123.3776,592.7768,1124.5691,598.3067,1119.0391,599.4982,1128.77,601.0183" style="stroke:#181818;stroke-width:1;stroke-linejoin:miter;stroke-miterlimit:10;"/><text fill="#000000" font-family="sans-serif" font-size="13" lengthAdjust="spacing" textLength="113.4453" x="1156.1292" y="512.5466">create_enrollment</text><text fill="#000000" font-family="sans-serif" font-size="13" lengthAdjust="spacing" textLength="301.8438" x="1061.93" y="527.8572">&#65288;request &#31574;&#30053;&#65306;&#19981;&#21344;&#21517;&#39069; + approval_deadline&#65289;</text></g><!--link *start*ENR to confirmed--><g class="link" data-entity-1="ent0007" data-entity-2="ent0010" data-link-type="dependency" data-source-line="19" id="lnk11"><path d="M1215.19,266.7383 C1206.03,298.7683 1179.95,408.4883 1231.93,468.9783 C1272.28,515.9283 1323.91,455.4683 1367.93,498.9783 C1429.27,559.6083 1346.12,632.2283 1411.93,687.9783 C1434.02,706.6883 1522.12,675.1483 1541.93,696.2583 C1551.66,706.6283 1545.41,714.4683 1541.93,728.2583 C1535.83,752.4383 1524.6399,772.9993 1513.1899,790.5693" fill="none" id="*start*ENR-to-confirmed" style="stroke:#181818;stroke-width:1;"/><polygon fill="#181818" points="1510.46,794.7583,1518.725,789.402,1513.1899,790.5693,1512.0226,785.0342,1510.46,794.7583" style="stroke:#181818;stroke-width:1;stroke-linejoin:miter;stroke-miterlimit:10;"/><text fill="#000000" font-family="sans-serif" font-size="13" lengthAdjust="spacing" textLength="113.4453" x="1443.1925" y="613.0466">create_enrollment</text><text fill="#000000" font-family="sans-serif" font-size="13" lengthAdjust="spacing" textLength="173.9702" x="1412.93" y="628.3572">&#65288;open&#65306;reserve_capacity&#65307;</text><text fill="#000000" font-family="sans-serif" font-size="13" lengthAdjust="spacing" textLength="172.9673" x="1413.4315" y="643.6677">invite_only&#65306;+ &#25187;&#25209;&#27425;&#37197;&#39069;&#65289;</text></g><!--link pending to confirmed--><g class="link" data-entity-1="ent0008" data-entity-2="ent0010" data-link-type="dependency" data-source-line="20" id="lnk12"><path d="M1205.21,642.6483 C1231.58,656.1683 1266.97,675.6383 1295.93,696.2583 C1313.37,708.6683 1312.28,719.7583 1331.93,728.2583 C1368.38,744.0183 1385.58,718.1683 1420.93,736.2583 C1446.4,749.2883 1464.0572,771.3353 1476.5272,790.8453" fill="none" id="pending-to-confirmed" style="stroke:#181818;stroke-width:1;"/><polygon fill="#181818" points="1479.22,795.0583,1477.7434,785.3207,1476.5272,790.8453,1471.0027,789.6292,1479.22,795.0583" style="stroke:#181818;stroke-width:1;stroke-linejoin:miter;stroke-miterlimit:10;"/><text fill="#000000" font-family="sans-serif" font-size="13" lengthAdjust="spacing" textLength="123.646" x="1373.2249" y="709.8266">confirm_enrollment</text><text fill="#000000" font-family="sans-serif" font-size="13" lengthAdjust="spacing" textLength="204.2358" x="1332.93" y="725.1372">claim_pending CAS + &#21407;&#23376;&#25187;&#21517;&#39069;</text></g><!--link pending to rejected--><g class="link" data-entity-1="ent0008" data-entity-2="ent0013" data-link-type="dependency" data-source-line="21" id="lnk14"><path d="M1128.95,626.0283 C1083.61,630.7483 1009.59,646.1783 974.93,696.2583 C949.4,733.1583 992.8753,770.8672 1029.9953,794.9472" fill="none" id="pending-to-rejected" style="stroke:#181818;stroke-width:1;"/><polygon fill="#181818" points="1034.19,797.6683,1028.8165,789.4145,1029.9953,794.9472,1024.4626,796.126,1034.19,797.6683" style="stroke:#181818;stroke-width:1;stroke-linejoin:miter;stroke-miterlimit:10;"/><text fill="#000000" font-family="sans-serif" font-size="13" lengthAdjust="spacing" textLength="110.2207" x="994.3826" y="709.8266">reject_enrollment</text><text fill="#000000" font-family="sans-serif" font-size="13" lengthAdjust="spacing" textLength="147.126" x="975.93" y="725.1372">&#65288;&#35760; rejection_reason&#65289;</text></g><!--link pending to rejected--><g class="link" data-entity-1="ent0008" data-entity-2="ent0013" data-link-type="dependency" data-source-line="31" id="lnk24"><path d="M1159.38,648.1383 C1152.31,669.6283 1140.92,701.6883 1127.93,728.2583 C1116.44,751.7583 1103.3871,772.8137 1091.4871,790.7237" fill="none" id="pending-to-rejected-1" style="stroke:#181818;stroke-width:1;"/><polygon fill="#181818" points="1088.72,794.8883,1097.0323,789.6058,1091.4871,790.7237,1090.3691,785.1785,1088.72,794.8883" style="stroke:#181818;stroke-width:1;stroke-linejoin:miter;stroke-miterlimit:10;"/><text fill="#000000" font-family="sans-serif" font-size="13" lengthAdjust="spacing" textLength="119.209" x="1142.49" y="717.3266">reject_sponsorship</text></g><!--link pending to expired--><g class="link" data-entity-1="ent0008" data-entity-2="ent0015" data-link-type="dependency" data-source-line="22" id="lnk16"><path d="M1128.78,625.1983 C1058.29,628.7383 904.23,642.5283 787.93,696.2583 C735.49,720.4883 688.9227,762.9802 661.0727,791.3502" fill="none" id="pending-to-expired" style="stroke:#181818;stroke-width:1;"/><polygon fill="#181818" points="657.57,794.9183,666.7293,791.2979,661.0727,791.3502,661.0204,785.6936,657.57,794.9183" style="stroke:#181818;stroke-width:1;stroke-linejoin:miter;stroke-miterlimit:10;"/><text fill="#000000" font-family="sans-serif" font-size="13" lengthAdjust="spacing" textLength="170.0728" x="789.2633" y="709.8266">ApprovalExpiryWorker &#25195;&#25551;</text><text fill="#000000" font-family="sans-serif" font-size="13" lengthAdjust="spacing" textLength="170.7393" x="788.93" y="725.1372">&#65288;approval_deadline &#36807;&#28857;&#65289;</text></g><!--link pending to expired--><g class="link" data-entity-1="ent0008" data-entity-2="ent0015" data-link-type="dependency" data-source-line="32" id="lnk25"><path d="M1128.96,625.2383 C994.64,630.0683 547.79,649.5783 505.93,696.2583 C468.44,738.0783 544.3823,780.3845 594.4223,802.6645" fill="none" id="pending-to-expired-1" style="stroke:#181818;stroke-width:1;"/><polygon fill="#181818" points="598.99,804.6983,592.3951,797.3834,594.4223,802.6645,589.1411,804.6917,598.99,804.6983" style="stroke:#181818;stroke-width:1;stroke-linejoin:miter;stroke-miterlimit:10;"/><text fill="#000000" font-family="sans-serif" font-size="13" lengthAdjust="spacing" textLength="45.3032" x="594.8546" y="709.8266">F7 &#36807;&#26399;</text><text fill="#000000" font-family="sans-serif" font-size="13" lengthAdjust="spacing" textLength="221.1523" x="506.93" y="725.1372">&#65288;&#8800; rejected&#65292;&#21487;&#37325;&#25552;&#65292;&#37325;&#25552;&#36208;&#26032;&#34892;&#65289;</text></g><!--link pending to cancelled--><g class="link" data-entity-1="ent0008" data-entity-2="ent0017" data-link-type="dependency" data-source-line="23" id="lnk18"><path d="M1205.16,641.1183 C1227.83,653.2783 1255.14,671.7783 1270.93,696.2583 C1297.32,737.1483 1312.8862,879.2498 1318.3462,937.8598" fill="none" id="pending-to-cancelled" style="stroke:#181818;stroke-width:1;"/><polygon fill="#181818" points="1318.81,942.8383,1321.9579,933.5061,1318.3462,937.8598,1313.9924,934.2481,1318.81,942.8383" style="stroke:#181818;stroke-width:1;stroke-linejoin:miter;stroke-miterlimit:10;"/><text fill="#000000" font-family="sans-serif" font-size="13" lengthAdjust="spacing" textLength="117.5649" x="1311.51" y="825.3266">cancel&#65288;&#26412;&#20154;&#21462;&#28040;&#65289;</text></g><!--link confirmed to cancelled--><g class="link" data-entity-1="ent0010" data-entity-2="ent0017" data-link-type="dependency" data-source-line="24" id="lnk19"><path d="M1464.14,845.6783 C1432.3,872.6983 1385.1123,912.7331 1353.3423,939.6931" fill="none" id="confirmed-to-cancelled" style="stroke:#181818;stroke-width:1;"/><polygon fill="#181818" points="1349.53,942.9283,1358.9803,940.1549,1353.3423,939.6931,1353.8041,934.0552,1349.53,942.9283" style="stroke:#181818;stroke-width:1;stroke-linejoin:miter;stroke-miterlimit:10;"/><text fill="#000000" font-family="sans-serif" font-size="13" lengthAdjust="spacing" textLength="39.5649" x="1495.8048" y="891.7866">cancel</text><text fill="#000000" font-family="sans-serif" font-size="13" lengthAdjust="spacing" textLength="184.4946" x="1423.34" y="907.0972">&#65288;release_capacity &#37322;&#25918;&#21517;&#39069;&#65289;</text></g><!--link *start*SPS to pending--><g class="link" data-entity-1="ent0020" data-entity-2="ent0008" data-link-type="dependency" data-source-line="29" id="lnk21"><path d="M1669.22,812.3683 C1644.84,787.3983 1561.54,702.8183 1545.93,696.2583 C1501.65,677.6383 1376.95,697.8183 1329.93,687.9783 C1285.44,678.6783 1241.8524,660.5408 1209.5124,645.2908" fill="none" id="*start*SPS-to-pending" style="stroke:#181818;stroke-width:1;"/><polygon fill="#181818" points="1204.99,643.1583,1211.4243,650.6148,1209.5124,645.2908,1214.8364,643.3789,1204.99,643.1583" style="stroke:#181818;stroke-width:1;stroke-linejoin:miter;stroke-miterlimit:10;"/><text fill="#000000" font-family="sans-serif" font-size="13" lengthAdjust="spacing" textLength="122.4336" x="1583.1" y="709.8266">create_sponsorship</text><text fill="#000000" font-family="sans-serif" font-size="13" lengthAdjust="spacing" textLength="78" x="1605.3168" y="725.1372">&#65288;&#24847;&#21521;&#25552;&#20132;&#65289;</text></g><!--link pending to active--><g class="link" data-entity-1="ent0008" data-entity-2="ent0022" data-link-type="dependency" data-source-line="30" id="lnk23"><path d="M1204.95,643.3583 C1237.26,658.7183 1285.37,679.0483 1329.93,687.9783 C1350.8,692.1683 1695.45,684.1183 1712.93,696.2583 C1745.22,718.6683 1755.5981,761.0597 1759.3481,790.0297" fill="none" id="pending-to-active" style="stroke:#181818;stroke-width:1;"/><polygon fill="#181818" points="1759.99,794.9883,1762.8015,785.5493,1759.3481,790.0297,1754.8677,786.5762,1759.99,794.9883" style="stroke:#181818;stroke-width:1;stroke-linejoin:miter;stroke-miterlimit:10;"/><text fill="#000000" font-family="sans-serif" font-size="13" lengthAdjust="spacing" textLength="134.748" x="1785.5233" y="709.8266">approve_sponsorship</text><text fill="#000000" font-family="sans-serif" font-size="13" lengthAdjust="spacing" textLength="223.4946" x="1741.15" y="725.1372">&#65288;&#21516;&#20107;&#21153;&#29289;&#21270; SponsorshipDelivery&#65289;</text></g><!--link active to ended--><g class="link" data-entity-1="ent0022" data-entity-2="ent0026" data-link-type="dependency" data-source-line="33" id="lnk27"><path d="M1751.72,845.6783 C1740.39,872.7783 1724.1582,911.615 1712.8982,938.555" fill="none" id="active-to-ended" style="stroke:#181818;stroke-width:1;"/><polygon fill="#181818" points="1710.97,943.1683,1718.1313,936.407,1712.8982,938.555,1710.7501,933.3219,1710.97,943.1683" style="stroke:#181818;stroke-width:1;stroke-linejoin:miter;stroke-miterlimit:10;"/><text fill="#000000" font-family="sans-serif" font-size="13" lengthAdjust="spacing" textLength="94.2881" x="1820.7274" y="891.7866">event.ended &#8594;</text><text fill="#000000" font-family="sans-serif" font-size="13" lengthAdjust="spacing" textLength="259.9429" x="1737.9" y="907.0972">SponsorshipEndedSubscriber&#65288;Event &#32423;&#65289;</text></g><!--link *start*WFD to draft--><g class="link" data-entity-1="ent0037" data-entity-2="ent0038" data-link-type="dependency" data-source-line="46" id="lnk39"><path d="M2524.93,267.1083 C2524.93,314.1483 2524.93,520.2083 2524.93,592.5483" fill="none" id="*start*WFD-to-draft" style="stroke:#181818;stroke-width:1;"/><polygon fill="#181818" points="2524.93,597.5483,2528.93,588.5483,2524.93,592.5483,2520.93,588.5483,2524.93,597.5483" style="stroke:#181818;stroke-width:1;stroke-linejoin:miter;stroke-miterlimit:10;"/><text fill="#000000" font-family="sans-serif" font-size="13" lengthAdjust="spacing" textLength="26" x="2525.93" y="520.0466">&#21019;&#24314;</text></g><!--link draft to published--><g class="link" data-entity-1="ent0038" data-entity-2="ent0040" data-link-type="dependency" data-source-line="47" id="lnk41"><path d="M2524.93,648.3183 C2524.93,685.8383 2524.93,752.3983 2524.93,789.9183" fill="none" id="draft-to-published" style="stroke:#181818;stroke-width:1;"/><polygon fill="#181818" points="2524.93,794.9183,2528.93,785.9183,2524.93,789.9183,2520.93,785.9183,2524.93,794.9183" style="stroke:#181818;stroke-width:1;stroke-linejoin:miter;stroke-miterlimit:10;"/><text fill="#000000" font-family="sans-serif" font-size="13" lengthAdjust="spacing" textLength="129.5684" x="2525.93" y="717.3266">&#21457;&#24067;&#65288;&#21487;&#23454;&#20363;&#21270; run&#65289;</text></g><!--link published to archived--><g class="link" data-entity-1="ent0040" data-entity-2="ent0042" data-link-type="dependency" data-source-line="48" id="lnk43"><path d="M2523.56,845.5883 C2523.52,864.2483 2525.69,890.1183 2535.93,910.2183 C2542.25,922.6183 2548.6533,930.4174 2558.8833,939.4574" fill="none" id="published-to-archived" style="stroke:#181818;stroke-width:1;"/><polygon fill="#181818" points="2562.63,942.7683,2558.5346,933.8113,2558.8833,939.4574,2553.2372,939.8061,2562.63,942.7683" style="stroke:#181818;stroke-width:1;stroke-linejoin:miter;stroke-miterlimit:10;"/><text fill="#000000" font-family="sans-serif" font-size="13" lengthAdjust="spacing" textLength="194.5684" x="2536.93" y="899.2866">&#24402;&#26723;&#65288;&#25913;&#23450;&#20041;&#19981;&#24433;&#21709;&#24050;&#24320;&#22987; run&#65289;</text></g><!--link *start*IVB to active--><g class="link" data-entity-1="ent0044" data-entity-2="ent0022" data-link-type="dependency" data-source-line="53" id="lnk45"><path d="M2190.6,632.9983 C2184.31,655.0283 2164.71,710.9983 2123.93,728.2583 C2107.15,735.3583 1810.94,725.9183 1795.93,736.2583 C1776.82,749.4183 1769.3694,770.4654 1765.6994,789.8654" fill="none" id="*start*IVB-to-active" style="stroke:#181818;stroke-width:1;"/><polygon fill="#181818" points="1764.77,794.7783,1770.3732,786.6786,1765.6994,789.8654,1762.5126,785.1916,1764.77,794.7783" style="stroke:#181818;stroke-width:1;stroke-linejoin:miter;stroke-miterlimit:10;"/><text fill="#000000" font-family="sans-serif" font-size="13" lengthAdjust="spacing" textLength="52" x="2160.42" y="717.3266">&#21518;&#21488;&#21019;&#24314;</text></g><!--link active to disabled--><g class="link" data-entity-1="ent0022" data-entity-2="ent0046" data-link-type="dependency" data-source-line="54" id="lnk47"><path d="M1764.84,794.8783 C1768.55,775.5283 1776.95,749.6083 1795.93,736.2583 C1812.49,724.6083 1959.17,735.8683 1977.93,728.2583 C1997.77,720.2083 1995.39,706.9483 2013.93,696.2583 C2024.07,690.4083 2028.83,693.8983 2038.93,687.9783 C2056.97,677.4083 2070.852,665.1507 2083.772,651.8807" fill="none" id="active-to-disabled" style="stroke:#181818;stroke-width:1;"/><polygon fill="#181818" points="2087.26,648.2983,2078.1157,651.9563,2083.772,651.8807,2083.8476,657.5371,2087.26,648.2983" style="stroke:#181818;stroke-width:1;stroke-linejoin:miter;stroke-miterlimit:10;"/><text fill="#000000" font-family="sans-serif" font-size="13" lengthAdjust="spacing" textLength="104" x="2014.93" y="717.3266">&#20572;&#29992;&#65288;&#36816;&#33829;&#19979;&#26550;&#65289;</text></g><!--link *start*RSO to drafted--><g class="link" data-entity-1="ent0048" data-entity-2="ent0049" data-link-type="dependency" data-source-line="59" id="lnk50"><path d="M2803.93,267.1083 C2803.93,314.1483 2803.93,520.2083 2803.93,592.5483" fill="none" id="*start*RSO-to-drafted" style="stroke:#181818;stroke-width:1;"/><polygon fill="#181818" points="2803.93,597.5483,2807.93,588.5483,2803.93,592.5483,2799.93,588.5483,2803.93,597.5483" style="stroke:#181818;stroke-width:1;stroke-linejoin:miter;stroke-miterlimit:10;"/><text fill="#000000" font-family="sans-serif" font-size="13" lengthAdjust="spacing" textLength="185.4023" x="2804.93" y="520.0466">save_outline / save_materials</text></g><!--link drafted to ready--><g class="link" data-entity-1="ent0049" data-entity-2="ent0051" data-link-type="dependency" data-source-line="60" id="lnk52"><path d="M2803.56,648.3183 C2802.98,685.8383 2801.956,752.3989 2801.386,789.9189" fill="none" id="drafted-to-ready" style="stroke:#181818;stroke-width:1;"/><polygon fill="#181818" points="2801.31,794.9183,2805.4462,785.9801,2801.386,789.9189,2797.4472,785.8586,2801.31,794.9183" style="stroke:#181818;stroke-width:1;stroke-linejoin:miter;stroke-miterlimit:10;"/><text fill="#000000" font-family="sans-serif" font-size="13" lengthAdjust="spacing" textLength="78" x="2826.6987" y="709.8266">&#29289;&#26009;&#20445;&#23384;&#23436;&#25104;</text><text fill="#000000" font-family="sans-serif" font-size="13" lengthAdjust="spacing" textLength="123.8174" x="2803.79" y="725.1372">&#65288;&#23457;&#26680;&#36890;&#36807;/&#20813;&#23457;&#26680;&#65289;</text></g><!--link ready to archived--><g class="link" data-entity-1="ent0051" data-entity-2="ent0042" data-link-type="dependency" data-source-line="61" id="lnk53"><path d="M2788.12,845.6783 C2776.71,865.3983 2758.37,892.6483 2735.93,910.2183 C2706.16,933.5383 2670.3141,947.2982 2640.6741,956.0782" fill="none" id="ready-to-archived" style="stroke:#181818;stroke-width:1;"/><polygon fill="#181818" points="2635.88,957.4983,2645.6454,958.7774,2640.6741,956.0782,2643.3733,951.1068,2635.88,957.4983" style="stroke:#181818;stroke-width:1;stroke-linejoin:miter;stroke-miterlimit:10;"/><text fill="#000000" font-family="sans-serif" font-size="13" lengthAdjust="spacing" textLength="139.6294" x="2766.15" y="899.2866">&#24402;&#26723; archive_materials</text></g><!--link ENR to GMN54--><g class="link" data-entity-1="ent0001" data-entity-2="ent0055" data-link-type="association" data-source-line="65" id="lnk56"><path d="M1580.2242,270.2594 C1580.5142,270.6979 1580.8113,271.1468 1581.1152,271.6061 C1581.7229,272.5247 1582.358,273.4846 1583.0195,274.4845 C1584.3425,276.4842 1585.7714,278.6439 1587.2991,280.953 C1590.3546,285.5712 1593.8056,290.7872 1597.5964,296.5169 C1612.7597,319.4355 1633.3606,350.5727 1655.8388,384.547 C1700.795,452.4958 1753.26,531.7933 1784.75,579.3883" fill="none" id="ENR-GMN54" style="stroke:#181818;stroke-width:1;stroke-dasharray:7,7;"/></g><!--link IVB to GMN60--><g class="link" data-entity-1="ent0005" data-entity-2="ent0061" data-link-type="association" data-source-line="79" id="lnk62"><path d="M2238.4214,671.9814 C2238.4239,672.2317 2238.4265,672.4825 2238.429,672.7339 C2238.4342,673.2366 2238.4394,673.7417 2238.4445,674.2491 C2238.4549,675.2638 2238.4654,676.2876 2238.4759,677.3197 C2238.5181,681.4481 2238.5617,685.7106 2238.6063,690.067 C2238.9625,724.9183 2239.38,765.7783 2239.65,792.0683" fill="none" id="IVB-GMN60" style="stroke:#181818;stroke-width:1;stroke-dasharray:7,7;"/></g><!--link SPS to GMN63--><g class="link" data-entity-1="ent0002" data-entity-2="ent0064" data-link-type="association" data-source-line="85" id="lnk65"><path d="M1993.9773,839.282 C1994.0165,839.3573 1994.0558,839.4328 1994.0953,839.5084 C1994.1742,839.6596 1994.2537,839.8112 1994.3338,839.9633 C1999.455,849.6958 2006.78,861.2083 2015.93,869.2583 C2051.68,900.7083 2099.25,923.8683 2140.36,939.7483" fill="none" id="SPS-GMN63" style="stroke:#181818;stroke-width:1;stroke-dasharray:7,7;"/></g><?plantuml-src fLTRJnH957xdLrJS1nDSR1nGqCJDga1YObO3k-k3cadFJ06zz7IFtJqesMmok20CCCuebnK41PMWhWAwocM6Ix8_nUsgwNdYB-ofgkwUA_0WuQ6ckyvNvtpVkLIVH1U_uQ_k9BeMG0t8tfeZOqjazRczEvaVsw29GJgVfHz7Q29ti3DA9vBvnS7yetLuXNuqBTcAcy5-MOrZ4zdxg_J3guET943PsN60e0lBD9ivs9aBoU4-h4KaLGb9uPvmCD3OV4x2_LYpJ0bhXgwgKLYVnlSld6rgEDkA_jq438JS7MPCrqpTC7kL6DlIShwXjHcs55zZkGyRGKNhLy0XHTVOhgRMxyy4MXhE12hH-3OS3CbMk9TjR6vjEDiCePr25Pwq1XhEDJOXkh1avpRGBpVQBltSZcZoLM4uLNYv076wkFTqewzRrU-PahSAHd2teYcUAysj05zELharDan9ZiKC7Lu6yVsOOWm4nNDcVgwfuVnvG8W1WuhMWvpz4Jh_WYR_fkbqOU6b8FoRfBSKIyN7A7yjSB0pKIe_EzViKxIORCXHn1JkCVIu5hcYgxg1xlK2oINlMVGO_Lu74QFB5Nk_wsZiQ6jl5Uzq8u8DztcWlQMjAL3tHnq4s53nXzfzjS2x6aa4_bKRrGa_JfGPqx5baad1_XD8Db7xJvskdxVgxm323yWZ_W8A6nZCWyNJRcjWR-2x8Ac5yXzcyjFBaExsLega5W4JyWITGhwq4In7L4N3ZBhI0yAwrgqOKHmvz0WTV01W0vlOwCV1i1oJmuerSB3pxBRc9hIkgV1xxXHBKPhSfk-N_4JbXtbHL1qercKdXbLPYGOzYokNkY0AykW5-P01S15N5QQ1VyDXYqEAPMKCpkgw-mRg8WXXchfMopbU01pdaajSEo-9cxmYa4XyZbX5BAkD_8FjcY7BMXYhgWYPhvdoy-_jR9QaP-Z6g6TKvAQscIkv2luNXK25aJ4wjIUeOKYrSxQhsCa0f5PVEp9hoysTBy_9s5ilRRjkT1sNjYNdyI3eK9fa7jDqniw-haMP34hrOx0NF5S3aCm4Q_HZI_daMp8nKnfU6rR1rXYeXLkTAIN0HwH3HulR-_ZXNvEBFXAq9f9UAuoa81XOYuNpPPtEh3jB4vuFRZmSL8jmI3uJJejVNny-kQsLXD3EddR5GsROK4BOW2FRsMwKpwuSfJ0VHbVzMSHrhZsWZj6w6eZkJ3chdmeF4ixQPb7tgnMwYtvGqakAvtBYhj_Je8n8vX59hmDPGa7oSDZviecCk5-I7ep8X32E2KonBCEqT1ZkC3uIq7DeOeMy_aYdHwim8ZZCIfHXkCjAn-1mbC-Dmk11tRAYCbazuTpZHU-AnbJi1kYkWvnYo1WVnuo33Ou8ZDfItNIdTPi_hC7sY15-X5WreUYNmVmRk0RDsTj9JwsR7MqLQaKCkTk2KCZeCvBBybVY4I_XU4XLp5uUAqa_9bj_igfBhx4XlJVEIgv4iE9cBfaHxeLivvQxJ-ZIA-RHrBPmXmsetOzaCaKsFv6T15aPzu1gKyMp45zcLoQ0EUG6TGG_vVOYWSMCyeYv-klb2cByxYCojOIVaZgEAAOS4jsP3CxdfzwmlhYVSJBBzjOuVRvnU4YTC4ePHzVZLYnk7Uvw-Jv6ulHiVd7ApgwGaQpdVMVNzLgoShzC6Jgd7hVuV9B4poX06ugicaMzNTcWOYC3O0KTbSxCsliBvCDJiZf1HpEYuwukqSMjGc8E6g54XbFYjvS1mhYc-jwJagE15qs744EwPUbHf7Upgm_WrDUNtF4EkLdLryDLGrmI2yyUWj4jhsLB9GDKAhPwoU_ZKd6ctlcQc89_CAT_BGeQ93CUYYeMx-cZGdEI-iSR29AF3JxybtW0blrdaBYoEYFlI3RjV5vpBs2vh5_XdV6oqePK3oeHL7Wvb9-UjRCJC56W3m9MHQoDxY5mDc9CLV45lRUAhoEQFIUDSUMrHQdOsQHYVvIABSubYB7ZqGUCmwsFESiVc47PGdPksDwTHw8FqyMbmhi9PttIMKknzhwLSZAxGYfmxuBxKNHSQ52FLQ4TLlSyhbjkLKf-JPQhY-_tod7JyYCGbrEoleikGfP4PUYRMa_mRbotv8kDA3ytLFRTnK3WvZcIXk7YV5wkpalniGREiF6_y5p4w-mFvbTonqZOnUE4DBAtSixc6jaRul5u-Got0hVXkEMNt1RbvsSWdTgWx_SaEhLcvvv2D5v6ZNOqSt_c_8-fmdo2ff-Wc3p0_0wM7X6JbOZGbINqy1kIdGJM1AOldXo5ZoOkTtus1zVfIX7_1m00?></g></svg>