<svg xmlns="http://www.w3.org/2000/svg" xmlns:xlink="http://www.w3.org/1999/xlink" version="1.1" data-diagram-type="ACTIVITY" style="width:2562px;height:3570px;background:#FFFFFF;" width="2562px" height="3570px" viewBox="0 0 2562 3570" zoomAndPan="magnify" preserveAspectRatio="none" contentStyleType="text/css"><?plantuml 1.2026.8?><defs/><g font-family="sans-serif" lengthAdjust="spacing"><g class="title" data-source-line="23"><text x="1007.675" y="33.535" fill="#000" font-size="14" textLength="545.501" font-weight="700">Initiative（倡导活动）四角色 User Journey（to-be）— 以 hackerstart1024 为例</text></g><rect x="20" y="54.785" width="2515.852" height="21.199" fill="none" style="stroke:none;"/><ellipse cx="217.043" cy="90.984" rx="10" ry="10" fill="#222" style="stroke:#222;stroke-width:1;"/><rect x="63.777" y="110.984" width="306.531" height="315.684" fill="none" style="stroke:#000;stroke-width:1.5;"/><path d="M220.319,110.984 L220.319,120.473 L210.319,130.473 L63.777,130.473" style="stroke:#000;stroke-width:1.5;" fill="none"/><text x="66.777" y="125.52" fill="#000" font-size="14" textLength="146.542">阶段一：发起 Initiative</text><rect x="91.3" y="147.473" width="251.486" height="62.398" fill="#F1F1F1" style="stroke:#181818;stroke-width:0.5;" rx="12.5" ry="12.5"/><text x="101.3" y="169.074" fill="#000" font-size="12" textLength="125.607">创建 Initiative（草稿）</text><text x="101.3" y="183.207" fill="#000" font-size="12" textLength="231.486">名称 / slug / 品牌标签 #hackerstart1024</text><text x="101.3" y="197.34" fill="#000" font-size="12" textLength="73.887">时间窗 / 描述</text><rect x="73.777" y="229.871" width="286.531" height="62.398" fill="#F1F1F1" style="stroke:#181818;stroke-width:0.5;" rx="12.5" ry="12.5"/><text x="83.777" y="251.473" fill="#000" font-size="12" textLength="193.887">配置规则并逐字段标「锁死 / 默认」</text><text x="83.777" y="265.605" fill="#000" font-size="12" textLength="147.281">押金 69（锁）· 18+（锁）</text><text x="83.777" y="279.738" fill="#000" font-size="12" textLength="266.531">成班阈值 8（默认）· 截止 = 开场前 72h（默认）</text><rect x="140.442" y="312.27" width="153.201" height="34.133" fill="#F1F1F1" style="stroke:#181818;stroke-width:0.5;" rx="12.5" ry="12.5"/><text x="150.442" y="333.871" fill="#000" font-size="12" textLength="133.201">发布 Initiative → 进行中</text><rect x="38" y="436.668" width="375.189" height="506.348" fill="none" style="stroke:#000;stroke-width:1.5;"/><path d="M216,436.668 L216,446.156 L206,456.156 L38,456.156" style="stroke:#000;stroke-width:1.5;" fill="none"/><text x="41" y="451.203" fill="#000" font-size="14" textLength="168">阶段二：建场与指派主理人</text><rect x="84.775" y="473.156" width="264.535" height="48.266" fill="#F1F1F1" style="stroke:#181818;stroke-width:0.5;" rx="12.5" ry="12.5"/><text x="94.775" y="494.758" fill="#000" font-size="12" textLength="168">场地与场次表由仓库外脚本产出</text><text x="94.775" y="508.891" fill="#000" font-size="12" textLength="244.535">（gen_sessions.py → 城市 × 场地 × 时段）</text><rect x="126.881" y="541.422" width="180.324" height="34.133" fill="#F1F1F1" style="stroke:#181818;stroke-width:0.5;" rx="12.5" ry="12.5"/><text x="136.881" y="563.023" fill="#000" font-size="12" textLength="160.324">对 agent 说「按这张表建场」</text><rect x="93.043" y="760.352" width="248" height="48.266" fill="#F1F1F1" style="stroke:#181818;stroke-width:0.5;" rx="12.5" ry="12.5"/><text x="103.043" y="781.953" fill="#000" font-size="12" textLength="228">建场时创建者（总部）默认成为本场主理人</text><text x="103.043" y="796.086" fill="#000" font-size="12" textLength="156">后续有人冒出来再从名单变更</text><rect x="146.185" y="828.617" width="141.717" height="34.133" fill="#F1F1F1" style="stroke:#181818;stroke-width:0.5;" rx="12.5" ry="12.5"/><text x="156.185" y="850.219" fill="#000" font-size="12" textLength="121.717">发布 Event（launch）</text><rect x="26" y="2228.199" width="375.189" height="586.348" fill="none" style="stroke:#000;stroke-width:1.5;"/><path d="M120,2228.199 L120,2237.688 L110,2247.688 L26,2247.688" style="stroke:#000;stroke-width:1.5;" fill="none"/><text x="29" y="2242.734" fill="#000" font-size="14" textLength="84">阶段五：现场</text><rect x="59.246" y="2264.688" width="315.594" height="48.266" fill="#F1F1F1" style="stroke:#181818;stroke-width:0.5;" rx="12.5" ry="12.5"/><text x="69.246" y="2286.289" fill="#000" font-size="12" textLength="295.594">报名者在微信里表达意愿 → 从本场名单把他设为主理人</text><text x="69.246" y="2300.422" fill="#000" font-size="12" textLength="241.652">（Owner/Admin 本身拥有主理人全部能力）</text><rect x="44.896" y="2824.547" width="344.293" height="532.215" fill="none" style="stroke:#000;stroke-width:1.5;"/><path d="M180.896,2824.547 L180.896,2834.035 L170.896,2844.035 L44.896,2844.035" style="stroke:#000;stroke-width:1.5;" fill="none"/><text x="47.896" y="2839.082" fill="#000" font-size="14" textLength="126">阶段六：结算与收官</text><rect x="75.022" y="3051.699" width="284.041" height="48.266" fill="#F1F1F1" style="stroke:#181818;stroke-width:0.5;" rx="12.5" ry="12.5"/><text x="85.022" y="3073.301" fill="#000" font-size="12" textLength="233.66">看公开页计数（城市 / 场次 / 报名 / 成班）</text><text x="85.022" y="3087.434" fill="#000" font-size="12" textLength="264.041">内部报表（退款 / no-show / 财务）用 agent 查</text><rect x="68.369" y="3119.965" width="297.348" height="48.266" fill="#F1F1F1" style="stroke:#181818;stroke-width:0.5;" rx="12.5" ry="12.5"/><text x="78.369" y="3141.566" fill="#000" font-size="12" textLength="277.348">场次改期 / 换场地 → 通知已报名者（新信号，A4）</text><text x="78.369" y="3155.699" fill="#000" font-size="12" textLength="132">不接受者的退款人工处理</text><rect x="101.246" y="3188.23" width="231.594" height="48.266" fill="#F1F1F1" style="stroke:#181818;stroke-width:0.5;" rx="12.5" ry="12.5"/><text x="111.246" y="3209.832" fill="#000" font-size="12" textLength="211.594">规则修正：改锁死字段 → 全场实时生效</text><text x="111.246" y="3223.965" fill="#000" font-size="12" textLength="199.594">改默认字段 → 只影响之后新建的场次</text><rect x="100.341" y="3256.496" width="233.404" height="34.133" fill="#F1F1F1" style="stroke:#181818;stroke-width:0.5;" rx="12.5" ry="12.5"/><text x="110.341" y="3278.098" fill="#000" font-size="12" textLength="213.404">收官：Initiative → 已结束，公开页留档</text><rect x="56.896" y="3310.629" width="320.293" height="34.133" fill="#F1F1F1" style="stroke:#181818;stroke-width:0.5;" rx="12.5" ry="12.5"/><text x="66.896" y="3332.23" fill="#000" font-size="12" textLength="300.293">【后置】Initiative 级作品总墙：将来单独 feature issue</text><ellipse cx="217.043" cy="3387.762" rx="11" ry="11" fill="none" style="stroke:#222;stroke-width:1;"/><ellipse cx="217.043" cy="3387.762" rx="6" ry="6" fill="#222" style="stroke:#222;stroke-width:1;"/><line x1="20" y1="54.785" x2="20" y2="3398.762" style="stroke:#000;stroke-width:1.5;"/><rect x="477.121" y="110.984" width="306.531" height="315.684" fill="none" style="stroke:#000;stroke-width:1.5;"/><path d="M633.663,110.984 L633.663,120.473 L623.663,130.473 L477.121,130.473" style="stroke:#000;stroke-width:1.5;" fill="none"/><text x="480.121" y="125.52" fill="#000" font-size="14" textLength="146.542">阶段一：发起 Initiative</text><rect x="548.694" y="366.402" width="163.385" height="48.266" fill="#F1F1F1" style="stroke:#181818;stroke-width:0.5;" rx="12.5" ry="12.5"/><text x="558.694" y="388.004" fill="#000" font-size="12" textLength="113.607">Initiative 公开页上线</text><text x="558.694" y="402.137" fill="#000" font-size="12" textLength="143.385">（城市列表为空，计数 0）</text><rect x="450.551" y="436.668" width="629.657" height="506.348" fill="none" style="stroke:#000;stroke-width:1.5;"/><path d="M628.551,436.668 L628.551,446.156 L618.551,456.156 L450.551,456.156" style="stroke:#000;stroke-width:1.5;" fill="none"/><text x="453.551" y="451.203" fill="#000" font-size="14" textLength="168">阶段二：建场与指派主理人</text><path d="M793.423,606.443 L793.423,622.754 L773.423,626.754 L793.423,630.754 L793.423,647.064 A0,0 0 0 0 793.423,647.064 L1070.208,647.064 A0,0 0 0 0 1070.208,647.064 L1070.208,616.443 L1060.208,606.443 L793.423,606.443 A0,0 0 0 0 793.423,606.443" style="stroke:#E0A800;stroke-width:0.5;" fill="#FFF8E1"/><path d="M1060.208,606.443 L1060.208,616.443 L1070.208,616.443 L1060.208,606.443" style="stroke:#E0A800;stroke-width:0.5;" fill="#FFF8E1"/><text x="799.423" y="624.012" fill="#000" font-size="13" textLength="192.994">不做批量建场功能（#511 关闭）</text><text x="799.423" y="639.322" fill="#000" font-size="13" textLength="255.785">幂等靠 slug 全局唯一：重放被既有约束拒掉</text><rect x="487.349" y="595.555" width="286.074" height="62.398" fill="#F1F1F1" style="stroke:#181818;stroke-width:0.5;" rx="12.5" ry="12.5"/><text x="497.349" y="617.156" fill="#000" font-size="12" textLength="173.385">agent 循环调既有 create_event</text><text x="497.349" y="631.289" fill="#000" font-size="12" textLength="266.074">带 initiative_id · slug = 1024-&lt;城市>-&lt;序号></text><text x="497.349" y="645.422" fill="#000" font-size="12" textLength="206.818">venue 四键 · starts / ends · capacity</text><rect x="460.551" y="677.953" width="339.67" height="62.398" fill="#F1F1F1" style="stroke:#181818;stroke-width:0.5;" rx="12.5" ry="12.5"/><text x="470.551" y="699.555" fill="#000" font-size="12" textLength="319.67">Event 草稿已挂载（能力都在 Event 上，Initiative 只给值）</text><text x="470.551" y="713.688" fill="#000" font-size="12" textLength="213.404">锁死字段：值由 Initiative 决定、不可改</text><text x="470.551" y="727.82" fill="#000" font-size="12" textLength="213.404">默认字段：以 Initiative 值为初值、可改</text><path d="M738.386,886.572 L738.386,902.883 L718.386,906.883 L738.386,910.883 L738.386,927.193 A0,0 0 0 0 738.386,927.193 L976.171,927.193 A0,0 0 0 0 976.171,927.193 L976.171,896.572 L966.171,886.572 L738.386,886.572 A0,0 0 0 0 738.386,886.572" style="stroke:#E0A800;stroke-width:0.5;" fill="#FFF8E1"/><path d="M966.171,886.572 L966.171,896.572 L976.171,896.572 L966.171,886.572" style="stroke:#E0A800;stroke-width:0.5;" fill="#FFF8E1"/><text x="744.386" y="904.141" fill="#000" font-size="13" textLength="207.061">只挂草稿期 Event；发布后不挂不摘</text><text x="744.386" y="919.451" fill="#000" font-size="13" textLength="216.785">（同 slug 发布后锁定：公开即契约）</text><rect x="542.386" y="882.75" width="176" height="48.266" fill="#F1F1F1" style="stroke:#181818;stroke-width:0.5;" rx="12.5" ry="12.5"/><text x="552.386" y="904.352" fill="#000" font-size="12" textLength="156">场次出现在公开页对应城市下</text><text x="552.386" y="918.484" fill="#000" font-size="12" textLength="48">计数更新</text><rect x="449.078" y="953.016" width="362.617" height="395.684" fill="none" style="stroke:#000;stroke-width:1.5;"/><path d="M775.089,953.016 L775.089,962.504 L765.089,972.504 L449.078,972.504" style="stroke:#000;stroke-width:1.5;" fill="none"/><text x="452.078" y="967.551" fill="#000" font-size="14" textLength="316.012">阶段二（未来分支）：城市自建（opt-in，非 v1）</text><rect x="465.678" y="1288.434" width="329.416" height="48.266" fill="#F1F1F1" style="stroke:#181818;stroke-width:0.5;" rx="12.5" ry="12.5"/><text x="475.678" y="1310.035" fill="#000" font-size="12" textLength="192">【未来】场次出现在公开页该城市下</text><text x="475.678" y="1324.168" fill="#000" font-size="12" textLength="309.416">「参与 Workspace」从挂载的 Event 推导，无需加入名册</text><rect x="432.627" y="1358.699" width="634.609" height="478.082" fill="none" style="stroke:#000;stroke-width:1.5;"/><path d="M582.627,1358.699 L582.627,1368.188 L572.627,1378.188 L432.627,1378.188" style="stroke:#000;stroke-width:1.5;" fill="none"/><text x="435.627" y="1373.234" fill="#000" font-size="14" textLength="140">阶段三：报名与付押金</text><rect x="549.564" y="1585.852" width="161.645" height="48.266" fill="#F1F1F1" style="stroke:#181818;stroke-width:0.5;" rx="12.5" ry="12.5"/><text x="559.564" y="1607.453" fill="#000" font-size="12" textLength="141.645">18+ 确认 + 条款版本留痕</text><text x="559.564" y="1621.586" fill="#000" font-size="12" textLength="114.352">（锁死规则，#510）</text><rect x="542.386" y="1654.117" width="176" height="48.266" fill="#F1F1F1" style="stroke:#181818;stroke-width:0.5;" rx="12.5" ry="12.5"/><text x="552.386" y="1675.719" fill="#000" font-size="12" textLength="54.973">付押金 69</text><text x="552.386" y="1689.852" fill="#000" font-size="12" textLength="156">（锁死规则，既有支付链路）</text><rect x="576.889" y="1722.383" width="106.994" height="34.133" fill="#F1F1F1" style="stroke:#181818;stroke-width:0.5;" rx="12.5" ry="12.5"/><text x="586.889" y="1743.984" fill="#000" font-size="12" textLength="86.994">报名 confirmed</text><rect x="423.189" y="1846.781" width="453.596" height="371.418" fill="none" style="stroke:#000;stroke-width:1.5;"/><path d="M616.536,1846.781 L616.536,1856.27 L606.536,1866.27 L423.189,1866.27" style="stroke:#000;stroke-width:1.5;" fill="none"/><text x="426.189" y="1861.316" fill="#000" font-size="14" textLength="183.347">阶段四：成班判定（T-72h）</text><rect x="458.413" y="1883.27" width="343.947" height="48.266" fill="#F1F1F1" style="stroke:#181818;stroke-width:0.5;" rx="12.5" ry="12.5"/><text x="468.413" y="1904.871" fill="#000" font-size="12" textLength="323.947">到截止时点按阈值判定并落「成班」事实（#512，v1 必须）</text><text x="468.413" y="1919.004" fill="#000" font-size="12" textLength="172.459">成班数与「还差 N 人」徽章读它</text><polygon points="582.079,1951.535,678.694,1951.535,690.694,1963.535,678.694,1975.535,582.079,1975.535,570.079,1963.535,582.079,1951.535" fill="#F1F1F1" style="stroke:#181818;stroke-width:0.5;stroke-linejoin:miter;stroke-miterlimit:10;"/><text x="582.079" y="1967.692" fill="#000" font-size="11" textLength="96.615">confirmed ≥ 阈值?</text><text x="559.079" y="1961.215" fill="#000" font-size="11">是</text><text x="690.694" y="1961.215" fill="#000" font-size="11">否</text><rect x="443.189" y="1995.535" width="157.596" height="34.133" fill="#F1F1F1" style="stroke:#181818;stroke-width:0.5;" rx="12.5" ry="12.5"/><text x="453.189" y="2017.137" fill="#000" font-size="12" textLength="137.596">【v1 应该】成班确认通知</text><rect x="645.069" y="1995.535" width="187.432" height="48.266" fill="#F1F1F1" style="stroke:#181818;stroke-width:0.5;" rx="12.5" ry="12.5"/><text x="655.069" y="2017.137" fill="#000" font-size="12" textLength="167.432">【v1 应该】自动 cancel_event</text><text x="655.069" y="2031.27" fill="#000" font-size="12" textLength="124.318">兜底：总部手动 cancel</text><rect x="656.92" y="2063.801" width="163.73" height="34.133" fill="#F1F1F1" style="stroke:#181818;stroke-width:0.5;" rx="12.5" ry="12.5"/><text x="666.92" y="2085.402" fill="#000" font-size="12" textLength="143.73">既有 worker 批量全额退款</text><rect x="629.987" y="2117.934" width="217.596" height="34.133" fill="#F1F1F1" style="stroke:#181818;stroke-width:0.5;" rx="12.5" ry="12.5"/><text x="639.987" y="2139.535" fill="#000" font-size="12" textLength="197.596">【v1 应该】「人数不足已退款」通知</text><rect x="457.448" y="2824.547" width="345.877" height="532.215" fill="none" style="stroke:#000;stroke-width:1.5;"/><path d="M593.448,2824.547 L593.448,2834.035 L583.448,2844.035 L457.448,2844.035" style="stroke:#000;stroke-width:1.5;" fill="none"/><text x="460.448" y="2839.082" fill="#000" font-size="14" textLength="126">阶段六：结算与收官</text><rect x="501.227" y="2861.035" width="258.318" height="48.266" fill="#F1F1F1" style="stroke:#181818;stroke-width:0.5;" rx="12.5" ry="12.5"/><text x="511.227" y="2882.637" fill="#000" font-size="12" textLength="197.695">活动结束 T+48h 自动结算（#509）</text><text x="511.227" y="2896.77" fill="#000" font-size="12" textLength="238.318">已核销 → 全额退 · 未核销 → no-show 不退</text><line x1="417.189" y1="54.785" x2="417.189" y2="3398.762" style="stroke:#000;stroke-width:1.5;"/><rect x="1099.646" y="1358.699" width="634.609" height="478.082" fill="none" style="stroke:#000;stroke-width:1.5;"/><path d="M1249.646,1358.699 L1249.646,1368.188 L1239.646,1378.188 L1099.646,1378.188" style="stroke:#000;stroke-width:1.5;" fill="none"/><text x="1102.646" y="1373.234" fill="#000" font-size="14" textLength="140">阶段三：报名与付押金</text><rect x="1109.646" y="1395.188" width="375.518" height="48.266" fill="#F1F1F1" style="stroke:#181818;stroke-width:0.5;" rx="12.5" ry="12.5"/><text x="1119.646" y="1416.789" fill="#000" font-size="12" textLength="205.887">从微信 / 小红书分享的公开页链接进入</text><text x="1119.646" y="1430.922" fill="#000" font-size="12" textLength="355.518">（web H5 与小程序 discover，小程序覆盖微信 / 抖音 / 小红书）</text><rect x="1135.146" y="1463.453" width="324.518" height="48.266" fill="#F1F1F1" style="stroke:#181818;stroke-width:0.5;" rx="12.5" ry="12.5"/><text x="1145.146" y="1485.055" fill="#000" font-size="12" textLength="91.594">选城市 → 看场次</text><text x="1145.146" y="1499.188" fill="#000" font-size="12" textLength="304.518">时间 · 场地 · 剩余名额 · 成班徽章（已成班 / 还差 N 人）</text><rect x="1216.144" y="1531.719" width="162.523" height="34.133" fill="#F1F1F1" style="stroke:#181818;stroke-width:0.5;" rx="12.5" ry="12.5"/><text x="1226.144" y="1553.32" fill="#000" font-size="12" textLength="142.523">进入既有 Event 页 → 报名</text><path d="M1404.84,1780.338 L1404.84,1796.648 L1384.84,1800.648 L1404.84,1804.648 L1404.84,1820.959 A0,0 0 0 0 1404.84,1820.959 L1724.256,1820.959 A0,0 0 0 0 1724.256,1820.959 L1724.256,1790.338 L1714.256,1780.338 L1404.84,1780.338 A0,0 0 0 0 1404.84,1780.338" style="stroke:#E0A800;stroke-width:0.5;" fill="#FFF8E1"/><path d="M1714.256,1780.338 L1714.256,1790.338 L1724.256,1790.338 L1714.256,1780.338" style="stroke:#E0A800;stroke-width:0.5;" fill="#FFF8E1"/><text x="1410.84" y="1797.906" fill="#000" font-size="13" textLength="298.416">截止前自助取消 → 自动全额退押金（新路径，A3）</text><text x="1410.84" y="1813.217" fill="#000" font-size="13" textLength="169.946">截止后取消 = no-show 不退</text><rect x="1209.971" y="1776.516" width="174.869" height="48.266" fill="#F1F1F1" style="stroke:#181818;stroke-width:0.5;" rx="12.5" ry="12.5"/><text x="1219.971" y="1798.117" fill="#000" font-size="12" textLength="96">小程序显示核销码</text><text x="1219.971" y="1812.25" fill="#000" font-size="12" textLength="154.869">（二维码 + 6 位码，#508）</text><rect x="1090.208" y="1846.781" width="453.596" height="371.418" fill="none" style="stroke:#000;stroke-width:1.5;"/><path d="M1283.555,1846.781 L1283.555,1856.27 L1273.555,1866.27 L1090.208,1866.27" style="stroke:#000;stroke-width:1.5;" fill="none"/><text x="1093.208" y="1861.316" fill="#000" font-size="14" textLength="183.347">阶段四：成班判定（T-72h）</text><rect x="1287.804" y="2172.066" width="236" height="34.133" fill="#F1F1F1" style="stroke:#181818;stroke-width:0.5;" rx="12.5" ry="12.5"/><text x="1297.804" y="2193.668" fill="#000" font-size="12" textLength="216">收到退款，可另选同城场次（人工协调）</text><rect x="1090.84" y="2228.199" width="413.131" height="586.348" fill="none" style="stroke:#000;stroke-width:1.5;"/><path d="M1184.84,2228.199 L1184.84,2237.688 L1174.84,2247.688 L1090.84,2247.688" style="stroke:#000;stroke-width:1.5;" fill="none"/><text x="1093.84" y="2242.734" fill="#000" font-size="14" textLength="84">阶段五：现场</text><rect x="1227.405" y="2577.75" width="140" height="34.133" fill="#F1F1F1" style="stroke:#181818;stroke-width:0.5;" rx="12.5" ry="12.5"/><text x="1237.405" y="2599.352" fill="#000" font-size="12" textLength="120">跟自助活动包做出作品</text><rect x="1163.567" y="2631.883" width="267.676" height="48.266" fill="#F1F1F1" style="stroke:#181818;stroke-width:0.5;" rx="12.5" ry="12.5"/><text x="1173.567" y="2653.484" fill="#000" font-size="12" textLength="247.676">【后置】在 Profile 添加作品并关联本场 Event</text><text x="1173.567" y="2667.617" fill="#000" font-size="12" textLength="140.766">（Event 级 issue，另开）</text><rect x="1124.467" y="2824.547" width="345.877" height="532.215" fill="none" style="stroke:#000;stroke-width:1.5;"/><path d="M1260.467,2824.547 L1260.467,2834.035 L1250.467,2844.035 L1124.467,2844.035" style="stroke:#000;stroke-width:1.5;" fill="none"/><text x="1127.467" y="2839.082" fill="#000" font-size="14" textLength="126">阶段六：结算与收官</text><rect x="1251.405" y="2929.301" width="92" height="34.133" fill="#F1F1F1" style="stroke:#181818;stroke-width:0.5;" rx="12.5" ry="12.5"/><text x="1261.405" y="2950.902" fill="#000" font-size="12" textLength="72">收到退款通知</text><rect x="1134.467" y="2983.434" width="325.877" height="48.266" fill="#F1F1F1" style="stroke:#181818;stroke-width:0.5;" rx="12.5" ry="12.5"/><text x="1144.467" y="3005.035" fill="#000" font-size="12" textLength="181.945">【未来】注册时已是 2046 成员；</text><text x="1144.467" y="3019.168" fill="#000" font-size="12" textLength="305.877">将来城市 Workspace 从这些人里长出来（申请 → 审批）</text><line x1="1084.208" y1="54.785" x2="1084.208" y2="3398.762" style="stroke:#000;stroke-width:1.5;"/><rect x="1744.256" y="2228.199" width="413.131" height="586.348" fill="none" style="stroke:#000;stroke-width:1.5;"/><path d="M1838.256,2228.199 L1838.256,2237.688 L1828.256,2247.688 L1744.256,2247.688" style="stroke:#000;stroke-width:1.5;" fill="none"/><text x="1747.256" y="2242.734" fill="#000" font-size="14" textLength="84">阶段五：现场</text><rect x="1904.821" y="2332.953" width="92" height="34.133" fill="#F1F1F1" style="stroke:#181818;stroke-width:0.5;" rx="12.5" ry="12.5"/><text x="1914.821" y="2354.555" fill="#000" font-size="12" textLength="72">收到指派通知</text><rect x="1754.256" y="2387.086" width="393.131" height="48.266" fill="#F1F1F1" style="stroke:#181818;stroke-width:0.5;" rx="12.5" ry="12.5"/><text x="1764.256" y="2408.688" fill="#000" font-size="12" textLength="373.131">（#513 thin）在 OpenClacky 里由 event-moderator agent 领流程</text><text x="1764.256" y="2422.82" fill="#000" font-size="12" textLength="131.391">场地确认 · 开场前检查单</text><rect x="1810.825" y="2455.352" width="279.992" height="48.266" fill="#F1F1F1" style="stroke:#181818;stroke-width:0.5;" rx="12.5" ry="12.5"/><text x="1820.825" y="2476.953" fill="#000" font-size="12" textLength="227.42">活动当天扫码核销 / 手输 6 位码（#508）</text><text x="1820.825" y="2491.086" fill="#000" font-size="12" textLength="259.992">一条报名至多一条 attendance，重复扫返回既有</text><rect x="1838.821" y="2523.617" width="224" height="34.133" fill="#F1F1F1" style="stroke:#181818;stroke-width:0.5;" rx="12.5" ry="12.5"/><text x="1848.821" y="2545.219" fill="#000" font-size="12" textLength="204">看本场名单（脱敏）处理「码不好用」</text><rect x="1821.56" y="2700.148" width="258.523" height="34.133" fill="#F1F1F1" style="stroke:#181818;stroke-width:0.5;" rx="12.5" ry="12.5"/><text x="1831.56" y="2721.75" fill="#000" font-size="12" textLength="238.523">【后置】审核本场作品 → 通过者上 Event 页</text><rect x="1828.137" y="2754.281" width="245.369" height="48.266" fill="#F1F1F1" style="stroke:#181818;stroke-width:0.5;" rx="12.5" ry="12.5"/><text x="1838.137" y="2775.883" fill="#000" font-size="12" textLength="225.369">【后置】照片 / 反馈 / 现场记录：v1 不做</text><text x="1838.137" y="2790.016" fill="#000" font-size="12" textLength="153.633">（存储未就绪，另记 issue）</text><line x1="1738.256" y1="54.785" x2="1738.256" y2="3398.762" style="stroke:#000;stroke-width:1.5;"/><rect x="2167.387" y="953.016" width="362.617" height="395.684" fill="none" style="stroke:#000;stroke-width:1.5;"/><path d="M2493.398,953.016 L2493.398,962.504 L2483.398,972.504 L2167.387,972.504" style="stroke:#000;stroke-width:1.5;" fill="none"/><text x="2170.387" y="967.551" fill="#000" font-size="14" textLength="316.012">阶段二（未来分支）：城市自建（opt-in，非 v1）</text><rect x="2193.655" y="989.504" width="310.08" height="48.266" fill="#F1F1F1" style="stroke:#181818;stroke-width:0.5;" rx="12.5" ry="12.5"/><text x="2203.655" y="1011.105" fill="#000" font-size="12" textLength="290.08">【未来】种子用户申请 Workspace → 平台管理员审批</text><text x="2203.655" y="1025.238" fill="#000" font-size="12" textLength="244.154">（既有 WorkspaceApplication 流，不预建）</text><rect x="2251.892" y="1057.77" width="193.607" height="34.133" fill="#F1F1F1" style="stroke:#181818;stroke-width:0.5;" rx="12.5" ry="12.5"/><text x="2261.892" y="1079.371" fill="#000" font-size="12" textLength="173.607">【未来】看到进行中的 Initiative</text><rect x="2177.387" y="1111.902" width="342.617" height="34.133" fill="#F1F1F1" style="stroke:#181818;stroke-width:0.5;" rx="12.5" ry="12.5"/><text x="2187.387" y="1133.504" fill="#000" font-size="12" textLength="322.617">【未来】在自己 Workspace 新建草稿 Event → 选 Initiative</text><rect x="2237" y="1166.035" width="223.391" height="48.266" fill="#F1F1F1" style="stroke:#181818;stroke-width:0.5;" rx="12.5" ry="12.5"/><text x="2247" y="1187.637" fill="#000" font-size="12" textLength="203.391">【未来】锁死字段只读 · 默认字段可改</text><text x="2247" y="1201.77" fill="#000" font-size="12" textLength="95.385">（例：阈值改 6）</text><rect x="2215.757" y="1234.301" width="265.877" height="34.133" fill="#F1F1F1" style="stroke:#181818;stroke-width:0.5;" rx="12.5" ry="12.5"/><text x="2225.757" y="1255.902" fill="#000" font-size="12" textLength="245.877">【未来】指派本 Workspace 的主理人 → 发布</text><line x1="2161.387" y1="54.785" x2="2161.387" y2="3398.762" style="stroke:#000;stroke-width:1.5;"/><line x1="2534.004" y1="54.785" x2="2534.004" y2="3398.762" style="stroke:#000;stroke-width:1.5;"/><line x1="217.043" y1="209.871" x2="217.043" y2="229.871" style="stroke:#181818;stroke-width:1;"/><polygon points="213.043,219.871,217.043,229.871,221.043,219.871,217.043,223.871" fill="#181818" style="stroke:#181818;stroke-width:1;stroke-linejoin:miter;stroke-miterlimit:10;"/><line x1="217.043" y1="292.27" x2="217.043" y2="312.27" style="stroke:#181818;stroke-width:1;"/><polygon points="213.043,302.27,217.043,312.27,221.043,302.27,217.043,306.27" fill="#181818" style="stroke:#181818;stroke-width:1;stroke-linejoin:miter;stroke-miterlimit:10;"/><line x1="217.043" y1="100.984" x2="217.043" y2="147.473" style="stroke:#181818;stroke-width:1;"/><polygon points="213.043,137.473,217.043,147.473,221.043,137.473,217.043,141.473" fill="#181818" style="stroke:#181818;stroke-width:1;stroke-linejoin:miter;stroke-miterlimit:10;"/><line x1="217.043" y1="521.422" x2="217.043" y2="541.422" style="stroke:#181818;stroke-width:1;"/><polygon points="213.043,531.422,217.043,541.422,221.043,531.422,217.043,535.422" fill="#181818" style="stroke:#181818;stroke-width:1;stroke-linejoin:miter;stroke-miterlimit:10;"/><line x1="217.043" y1="808.617" x2="217.043" y2="828.617" style="stroke:#181818;stroke-width:1;"/><polygon points="213.043,818.617,217.043,828.617,221.043,818.617,217.043,822.617" fill="#181818" style="stroke:#181818;stroke-width:1;stroke-linejoin:miter;stroke-miterlimit:10;"/><line x1="217.043" y1="3099.965" x2="217.043" y2="3119.965" style="stroke:#181818;stroke-width:1;"/><polygon points="213.043,3109.965,217.043,3119.965,221.043,3109.965,217.043,3113.965" fill="#181818" style="stroke:#181818;stroke-width:1;stroke-linejoin:miter;stroke-miterlimit:10;"/><line x1="217.043" y1="3168.23" x2="217.043" y2="3188.23" style="stroke:#181818;stroke-width:1;"/><polygon points="213.043,3178.23,217.043,3188.23,221.043,3178.23,217.043,3182.23" fill="#181818" style="stroke:#181818;stroke-width:1;stroke-linejoin:miter;stroke-miterlimit:10;"/><line x1="217.043" y1="3236.496" x2="217.043" y2="3256.496" style="stroke:#181818;stroke-width:1;"/><polygon points="213.043,3246.496,217.043,3256.496,221.043,3246.496,217.043,3250.496" fill="#181818" style="stroke:#181818;stroke-width:1;stroke-linejoin:miter;stroke-miterlimit:10;"/><line x1="217.043" y1="3290.629" x2="217.043" y2="3310.629" style="stroke:#181818;stroke-width:1;"/><polygon points="213.043,3300.629,217.043,3310.629,221.043,3300.629,217.043,3304.629" fill="#181818" style="stroke:#181818;stroke-width:1;stroke-linejoin:miter;stroke-miterlimit:10;"/><line x1="217.043" y1="3344.762" x2="217.043" y2="3376.762" style="stroke:#181818;stroke-width:1;"/><polygon points="213.043,3366.762,217.043,3376.762,221.043,3366.762,217.043,3370.762" fill="#181818" style="stroke:#181818;stroke-width:1;stroke-linejoin:miter;stroke-miterlimit:10;"/><line x1="630.386" y1="657.953" x2="630.386" y2="677.953" style="stroke:#181818;stroke-width:1;"/><polygon points="626.386,667.953,630.386,677.953,634.386,667.953,630.386,671.953" fill="#181818" style="stroke:#181818;stroke-width:1;stroke-linejoin:miter;stroke-miterlimit:10;"/><line x1="630.386" y1="1634.117" x2="630.386" y2="1654.117" style="stroke:#181818;stroke-width:1;"/><polygon points="626.386,1644.117,630.386,1654.117,634.386,1644.117,630.386,1648.117" fill="#181818" style="stroke:#181818;stroke-width:1;stroke-linejoin:miter;stroke-miterlimit:10;"/><line x1="630.386" y1="1702.383" x2="630.386" y2="1722.383" style="stroke:#181818;stroke-width:1;"/><polygon points="626.386,1712.383,630.386,1722.383,634.386,1712.383,630.386,1716.383" fill="#181818" style="stroke:#181818;stroke-width:1;stroke-linejoin:miter;stroke-miterlimit:10;"/><line x1="738.785" y1="2043.801" x2="738.785" y2="2063.801" style="stroke:#181818;stroke-width:1;"/><polygon points="734.785,2053.801,738.785,2063.801,742.785,2053.801,738.785,2057.801" fill="#181818" style="stroke:#181818;stroke-width:1;stroke-linejoin:miter;stroke-miterlimit:10;"/><line x1="738.785" y1="2097.934" x2="738.785" y2="2117.934" style="stroke:#181818;stroke-width:1;"/><polygon points="734.785,2107.934,738.785,2117.934,742.785,2107.934,738.785,2111.934" fill="#181818" style="stroke:#181818;stroke-width:1;stroke-linejoin:miter;stroke-miterlimit:10;"/><line x1="570.079" y1="1963.535" x2="521.987" y2="1963.535" style="stroke:#181818;stroke-width:1;"/><line x1="521.987" y1="1963.535" x2="521.987" y2="1995.535" style="stroke:#181818;stroke-width:1;"/><polygon points="517.987,1985.535,521.987,1995.535,525.987,1985.535,521.987,1989.535" fill="#181818" style="stroke:#181818;stroke-width:1;stroke-linejoin:miter;stroke-miterlimit:10;"/><line x1="690.694" y1="1963.535" x2="738.785" y2="1963.535" style="stroke:#181818;stroke-width:1;"/><line x1="738.785" y1="1963.535" x2="738.785" y2="1995.535" style="stroke:#181818;stroke-width:1;"/><polygon points="734.785,1985.535,738.785,1995.535,742.785,1985.535,738.785,1989.535" fill="#181818" style="stroke:#181818;stroke-width:1;stroke-linejoin:miter;stroke-miterlimit:10;"/><line x1="521.987" y1="2029.668" x2="521.987" y2="2223.199" style="stroke:#181818;stroke-width:1;"/><line x1="521.987" y1="2223.199" x2="217.043" y2="2223.199" style="stroke:#181818;stroke-width:1;"/><line x1="217.043" y1="2223.199" x2="217.043" y2="2264.688" style="stroke:#181818;stroke-width:1;"/><polygon points="213.043,2254.688,217.043,2264.688,221.043,2254.688,217.043,2258.688" fill="#181818" style="stroke:#181818;stroke-width:1;stroke-linejoin:miter;stroke-miterlimit:10;"/><line x1="630.386" y1="1931.535" x2="630.386" y2="1951.535" style="stroke:#181818;stroke-width:1;"/><polygon points="626.386,1941.535,630.386,1951.535,634.386,1941.535,630.386,1945.535" fill="#181818" style="stroke:#181818;stroke-width:1;stroke-linejoin:miter;stroke-miterlimit:10;"/><line x1="1297.405" y1="1443.453" x2="1297.405" y2="1463.453" style="stroke:#181818;stroke-width:1;"/><polygon points="1293.405,1453.453,1297.405,1463.453,1301.405,1453.453,1297.405,1457.453" fill="#181818" style="stroke:#181818;stroke-width:1;stroke-linejoin:miter;stroke-miterlimit:10;"/><line x1="1297.405" y1="1511.719" x2="1297.405" y2="1531.719" style="stroke:#181818;stroke-width:1;"/><polygon points="1293.405,1521.719,1297.405,1531.719,1301.405,1521.719,1297.405,1525.719" fill="#181818" style="stroke:#181818;stroke-width:1;stroke-linejoin:miter;stroke-miterlimit:10;"/><line x1="1297.405" y1="2611.883" x2="1297.405" y2="2631.883" style="stroke:#181818;stroke-width:1;"/><polygon points="1293.405,2621.883,1297.405,2631.883,1301.405,2621.883,1297.405,2625.883" fill="#181818" style="stroke:#181818;stroke-width:1;stroke-linejoin:miter;stroke-miterlimit:10;"/><line x1="1297.405" y1="2963.434" x2="1297.405" y2="2983.434" style="stroke:#181818;stroke-width:1;"/><polygon points="1293.405,2973.434,1297.405,2983.434,1301.405,2973.434,1297.405,2977.434" fill="#181818" style="stroke:#181818;stroke-width:1;stroke-linejoin:miter;stroke-miterlimit:10;"/><line x1="1950.821" y1="2367.086" x2="1950.821" y2="2387.086" style="stroke:#181818;stroke-width:1;"/><polygon points="1946.821,2377.086,1950.821,2387.086,1954.821,2377.086,1950.821,2381.086" fill="#181818" style="stroke:#181818;stroke-width:1;stroke-linejoin:miter;stroke-miterlimit:10;"/><line x1="1950.821" y1="2435.352" x2="1950.821" y2="2455.352" style="stroke:#181818;stroke-width:1;"/><polygon points="1946.821,2445.352,1950.821,2455.352,1954.821,2445.352,1950.821,2449.352" fill="#181818" style="stroke:#181818;stroke-width:1;stroke-linejoin:miter;stroke-miterlimit:10;"/><line x1="1950.821" y1="2503.617" x2="1950.821" y2="2523.617" style="stroke:#181818;stroke-width:1;"/><polygon points="1946.821,2513.617,1950.821,2523.617,1954.821,2513.617,1950.821,2517.617" fill="#181818" style="stroke:#181818;stroke-width:1;stroke-linejoin:miter;stroke-miterlimit:10;"/><line x1="1950.821" y1="2734.281" x2="1950.821" y2="2754.281" style="stroke:#181818;stroke-width:1;"/><polygon points="1946.821,2744.281,1950.821,2754.281,1954.821,2744.281,1950.821,2748.281" fill="#181818" style="stroke:#181818;stroke-width:1;stroke-linejoin:miter;stroke-miterlimit:10;"/><line x1="2348.695" y1="1037.77" x2="2348.695" y2="1057.77" style="stroke:#181818;stroke-width:1;"/><polygon points="2344.695,1047.77,2348.695,1057.77,2352.695,1047.77,2348.695,1051.77" fill="#181818" style="stroke:#181818;stroke-width:1;stroke-linejoin:miter;stroke-miterlimit:10;"/><line x1="2348.695" y1="1091.902" x2="2348.695" y2="1111.902" style="stroke:#181818;stroke-width:1;"/><polygon points="2344.695,1101.902,2348.695,1111.902,2352.695,1101.902,2348.695,1105.902" fill="#181818" style="stroke:#181818;stroke-width:1;stroke-linejoin:miter;stroke-miterlimit:10;"/><line x1="2348.695" y1="1146.035" x2="2348.695" y2="1166.035" style="stroke:#181818;stroke-width:1;"/><polygon points="2344.695,1156.035,2348.695,1166.035,2352.695,1156.035,2348.695,1160.035" fill="#181818" style="stroke:#181818;stroke-width:1;stroke-linejoin:miter;stroke-miterlimit:10;"/><line x1="2348.695" y1="1214.301" x2="2348.695" y2="1234.301" style="stroke:#181818;stroke-width:1;"/><polygon points="2344.695,1224.301,2348.695,1234.301,2352.695,1224.301,2348.695,1228.301" fill="#181818" style="stroke:#181818;stroke-width:1;stroke-linejoin:miter;stroke-miterlimit:10;"/><line x1="217.043" y1="346.402" x2="217.043" y2="351.402" style="stroke:#181818;stroke-width:1;"/><line x1="217.043" y1="351.402" x2="630.386" y2="351.402" style="stroke:#181818;stroke-width:1;"/><line x1="630.386" y1="351.402" x2="630.386" y2="366.402" style="stroke:#181818;stroke-width:1;"/><polygon points="626.386,356.402,630.386,366.402,634.386,356.402,630.386,360.402" fill="#181818" style="stroke:#181818;stroke-width:1;stroke-linejoin:miter;stroke-miterlimit:10;"/><line x1="217.043" y1="575.555" x2="217.043" y2="580.555" style="stroke:#181818;stroke-width:1;"/><line x1="217.043" y1="580.555" x2="630.386" y2="580.555" style="stroke:#181818;stroke-width:1;"/><line x1="630.386" y1="580.555" x2="630.386" y2="595.555" style="stroke:#181818;stroke-width:1;"/><polygon points="626.386,585.555,630.386,595.555,634.386,585.555,630.386,589.555" fill="#181818" style="stroke:#181818;stroke-width:1;stroke-linejoin:miter;stroke-miterlimit:10;"/><line x1="630.386" y1="740.352" x2="630.386" y2="745.352" style="stroke:#181818;stroke-width:1;"/><line x1="630.386" y1="745.352" x2="217.043" y2="745.352" style="stroke:#181818;stroke-width:1;"/><line x1="217.043" y1="745.352" x2="217.043" y2="760.352" style="stroke:#181818;stroke-width:1;"/><polygon points="213.043,750.352,217.043,760.352,221.043,750.352,217.043,754.352" fill="#181818" style="stroke:#181818;stroke-width:1;stroke-linejoin:miter;stroke-miterlimit:10;"/><line x1="217.043" y1="862.75" x2="217.043" y2="867.75" style="stroke:#181818;stroke-width:1;"/><line x1="217.043" y1="867.75" x2="630.386" y2="867.75" style="stroke:#181818;stroke-width:1;"/><line x1="630.386" y1="867.75" x2="630.386" y2="882.75" style="stroke:#181818;stroke-width:1;"/><polygon points="626.386,872.75,630.386,882.75,634.386,872.75,630.386,876.75" fill="#181818" style="stroke:#181818;stroke-width:1;stroke-linejoin:miter;stroke-miterlimit:10;"/><line x1="630.386" y1="414.668" x2="630.386" y2="431.668" style="stroke:#181818;stroke-width:1;"/><line x1="630.386" y1="431.668" x2="217.043" y2="431.668" style="stroke:#181818;stroke-width:1;"/><line x1="217.043" y1="431.668" x2="217.043" y2="473.156" style="stroke:#181818;stroke-width:1;"/><polygon points="213.043,463.156,217.043,473.156,221.043,463.156,217.043,467.156" fill="#181818" style="stroke:#181818;stroke-width:1;stroke-linejoin:miter;stroke-miterlimit:10;"/><line x1="2348.695" y1="1268.434" x2="2348.695" y2="1273.434" style="stroke:#181818;stroke-width:1;"/><line x1="2348.695" y1="1273.434" x2="630.386" y2="1273.434" style="stroke:#181818;stroke-width:1;"/><line x1="630.386" y1="1273.434" x2="630.386" y2="1288.434" style="stroke:#181818;stroke-width:1;"/><polygon points="626.386,1278.434,630.386,1288.434,634.386,1278.434,630.386,1282.434" fill="#181818" style="stroke:#181818;stroke-width:1;stroke-linejoin:miter;stroke-miterlimit:10;"/><line x1="630.386" y1="931.016" x2="630.386" y2="948.016" style="stroke:#181818;stroke-width:1;"/><line x1="630.386" y1="948.016" x2="2348.695" y2="948.016" style="stroke:#181818;stroke-width:1;"/><line x1="2348.695" y1="948.016" x2="2348.695" y2="989.504" style="stroke:#181818;stroke-width:1;"/><polygon points="2344.695,979.504,2348.695,989.504,2352.695,979.504,2348.695,983.504" fill="#181818" style="stroke:#181818;stroke-width:1;stroke-linejoin:miter;stroke-miterlimit:10;"/><line x1="1297.405" y1="1565.852" x2="1297.405" y2="1570.852" style="stroke:#181818;stroke-width:1;"/><line x1="1297.405" y1="1570.852" x2="630.386" y2="1570.852" style="stroke:#181818;stroke-width:1;"/><line x1="630.386" y1="1570.852" x2="630.386" y2="1585.852" style="stroke:#181818;stroke-width:1;"/><polygon points="626.386,1575.852,630.386,1585.852,634.386,1575.852,630.386,1579.852" fill="#181818" style="stroke:#181818;stroke-width:1;stroke-linejoin:miter;stroke-miterlimit:10;"/><line x1="630.386" y1="1756.516" x2="630.386" y2="1761.516" style="stroke:#181818;stroke-width:1;"/><line x1="630.386" y1="1761.516" x2="1297.405" y2="1761.516" style="stroke:#181818;stroke-width:1;"/><line x1="1297.405" y1="1761.516" x2="1297.405" y2="1776.516" style="stroke:#181818;stroke-width:1;"/><polygon points="1293.405,1766.516,1297.405,1776.516,1301.405,1766.516,1297.405,1770.516" fill="#181818" style="stroke:#181818;stroke-width:1;stroke-linejoin:miter;stroke-miterlimit:10;"/><line x1="630.386" y1="1336.699" x2="630.386" y2="1353.699" style="stroke:#181818;stroke-width:1;"/><line x1="630.386" y1="1353.699" x2="1297.405" y2="1353.699" style="stroke:#181818;stroke-width:1;"/><line x1="1297.405" y1="1353.699" x2="1297.405" y2="1395.188" style="stroke:#181818;stroke-width:1;"/><polygon points="1293.405,1385.188,1297.405,1395.188,1301.405,1385.188,1297.405,1389.188" fill="#181818" style="stroke:#181818;stroke-width:1;stroke-linejoin:miter;stroke-miterlimit:10;"/><line x1="738.785" y1="2152.066" x2="738.785" y2="2157.066" style="stroke:#181818;stroke-width:1;"/><line x1="738.785" y1="2157.066" x2="1405.804" y2="2157.066" style="stroke:#181818;stroke-width:1;"/><line x1="1405.804" y1="2157.066" x2="1405.804" y2="2172.066" style="stroke:#181818;stroke-width:1;"/><polygon points="1401.804,2162.066,1405.804,2172.066,1409.804,2162.066,1405.804,2166.066" fill="#181818" style="stroke:#181818;stroke-width:1;stroke-linejoin:miter;stroke-miterlimit:10;"/><line x1="1297.405" y1="1824.781" x2="1297.405" y2="1841.781" style="stroke:#181818;stroke-width:1;"/><line x1="1297.405" y1="1841.781" x2="630.386" y2="1841.781" style="stroke:#181818;stroke-width:1;"/><line x1="630.386" y1="1841.781" x2="630.386" y2="1883.27" style="stroke:#181818;stroke-width:1;"/><polygon points="626.386,1873.27,630.386,1883.27,634.386,1873.27,630.386,1877.27" fill="#181818" style="stroke:#181818;stroke-width:1;stroke-linejoin:miter;stroke-miterlimit:10;"/><line x1="217.043" y1="2312.953" x2="217.043" y2="2317.953" style="stroke:#181818;stroke-width:1;"/><line x1="217.043" y1="2317.953" x2="1950.821" y2="2317.953" style="stroke:#181818;stroke-width:1;"/><line x1="1950.821" y1="2317.953" x2="1950.821" y2="2332.953" style="stroke:#181818;stroke-width:1;"/><polygon points="1946.821,2322.953,1950.821,2332.953,1954.821,2322.953,1950.821,2326.953" fill="#181818" style="stroke:#181818;stroke-width:1;stroke-linejoin:miter;stroke-miterlimit:10;"/><line x1="1950.821" y1="2557.75" x2="1950.821" y2="2562.75" style="stroke:#181818;stroke-width:1;"/><line x1="1950.821" y1="2562.75" x2="1297.405" y2="2562.75" style="stroke:#181818;stroke-width:1;"/><line x1="1297.405" y1="2562.75" x2="1297.405" y2="2577.75" style="stroke:#181818;stroke-width:1;"/><polygon points="1293.405,2567.75,1297.405,2577.75,1301.405,2567.75,1297.405,2571.75" fill="#181818" style="stroke:#181818;stroke-width:1;stroke-linejoin:miter;stroke-miterlimit:10;"/><line x1="1297.405" y1="2680.148" x2="1297.405" y2="2685.148" style="stroke:#181818;stroke-width:1;"/><line x1="1297.405" y1="2685.148" x2="1950.821" y2="2685.148" style="stroke:#181818;stroke-width:1;"/><line x1="1950.821" y1="2685.148" x2="1950.821" y2="2700.148" style="stroke:#181818;stroke-width:1;"/><polygon points="1946.821,2690.148,1950.821,2700.148,1954.821,2690.148,1950.821,2694.148" fill="#181818" style="stroke:#181818;stroke-width:1;stroke-linejoin:miter;stroke-miterlimit:10;"/><line x1="630.386" y1="2909.301" x2="630.386" y2="2914.301" style="stroke:#181818;stroke-width:1;"/><line x1="630.386" y1="2914.301" x2="1297.405" y2="2914.301" style="stroke:#181818;stroke-width:1;"/><line x1="1297.405" y1="2914.301" x2="1297.405" y2="2929.301" style="stroke:#181818;stroke-width:1;"/><polygon points="1293.405,2919.301,1297.405,2929.301,1301.405,2919.301,1297.405,2923.301" fill="#181818" style="stroke:#181818;stroke-width:1;stroke-linejoin:miter;stroke-miterlimit:10;"/><line x1="1297.405" y1="3031.699" x2="1297.405" y2="3036.699" style="stroke:#181818;stroke-width:1;"/><line x1="1297.405" y1="3036.699" x2="217.043" y2="3036.699" style="stroke:#181818;stroke-width:1;"/><line x1="217.043" y1="3036.699" x2="217.043" y2="3051.699" style="stroke:#181818;stroke-width:1;"/><polygon points="213.043,3041.699,217.043,3051.699,221.043,3041.699,217.043,3045.699" fill="#181818" style="stroke:#181818;stroke-width:1;stroke-linejoin:miter;stroke-miterlimit:10;"/><line x1="1950.821" y1="2802.547" x2="1950.821" y2="2819.547" style="stroke:#181818;stroke-width:1;"/><line x1="1950.821" y1="2819.547" x2="630.386" y2="2819.547" style="stroke:#181818;stroke-width:1;"/><line x1="630.386" y1="2819.547" x2="630.386" y2="2861.035" style="stroke:#181818;stroke-width:1;"/><polygon points="626.386,2851.035,630.386,2861.035,634.386,2851.035,630.386,2855.035" fill="#181818" style="stroke:#181818;stroke-width:1;stroke-linejoin:miter;stroke-miterlimit:10;"/><text x="74.823" y="72.188" fill="#000" font-size="18" textLength="287.543">总部（平台管理员 / 2046 owner）</text><text x="640.827" y="72.188" fill="#000" font-size="18" textLength="219.744">平台 + OpenClacky agent</text><text x="1348.232" y="72.188" fill="#000" font-size="18" textLength="126">参与者（学员）</text><text x="1820.785" y="72.188" fill="#000" font-size="18" textLength="258.073">主理人（Event 级 moderator）</text><text x="2183.437" y="72.188" fill="#000" font-size="18" textLength="328.518">城市 Workspace owner（opt-in 未来）</text><g class="legend" data-source-line="141"><rect x="1794.221" y="3420.762" width="744.631" height="125.418" fill="none" style="stroke:#000;stroke-width:1;" rx="7.5" ry="7.5"/><text x="1799.221" y="3439.297" fill="#000" font-size="14" textLength="28" font-weight="700">图例</text><text x="1799.221" y="3455.785" fill="#000" font-size="14" textLength="628.94">无标记 = v1 必须 · 【v1 应该】= 可脚本 / 人肉顶 · 【后置】= 另开 issue · 【未来】= opt-in 未来</text><text x="1799.221" y="3472.273" fill="#000" font-size="14" textLength="70" font-weight="700">按角色读法</text><text x="1869.221" y="3472.273" fill="#000" font-size="14" textLength="265.508">：每条泳道自上而下就是该角色的 journey</text><text x="1799.221" y="3488.762" fill="#000" font-size="14" textLength="734.631">总部：发起 → 配规则 → 让 agent 建场（默认自己是主理人）→ 发布 → 从名单换主理人 → 盯计数 → 修规则 → 收官</text><text x="1799.221" y="3505.25" fill="#000" font-size="14" textLength="602.998">参与者：分享链接 → 公开页 → 城市 → 场次 → 18+ · 押金 → 核销码 → 到场 → 作品 → 退押金</text><text x="1799.221" y="3521.738" fill="#000" font-size="14" textLength="674.912">主理人：从报名者里冒出来 → 被总部从名单设为主理人 → agent 领流程 → 扫码核销 → 看名单 → 审核作品</text><text x="1799.221" y="3538.227" fill="#000" font-size="14" textLength="692.439">城市 owner（未来）：申请 Workspace → 看到 Initiative → 建草稿场次挂进去 → 改默认字段 → 指派 → 发布</text></g><?plantuml-src nLbRKrlN5NxdL-oPF2InXmXin_MbJiVjEDDsEatJIQSldc5aSJ1AXAIHX5rFqnc14KWW8Mp47OUBZS7OI79m34WWPjf_4ckVovF_Gh-rrpv71qmSktce7yoHphwilTQtllMjhG_5bL_mh-r3yQTpebty8HfEXOEfy2tZzNvMfbTaPTzyKPUZ6w_tSt9XmLw_R-U-5tzB6WdnnrX_8chSmRXKhFq6nkTl98BXQ38LI_I9CnrdphTtN6plF8k9MDmQVMcc1rxlppkBQVFve7m-Q9SRTdd5sZZ4H5cTDnStPVaxQxpwAZteP0foRKPS-wkmrmT4s3EftKXy4k_lYxpUNy2IGl1Q8Xu9HaLpjoQwOw5aW3ub0_Wy9a96ky-aPctToZsXOpKoSdWETc4hhDEiZM5dyy6QMPl0MtDcrLpCsNSFvEY2Kvgt1lSm4eQh7My4GzyOqUv097mZ4BePwZhJSUvymBXbH5D9_lE9yG-iSOqUzPdDHHYM2FQaVXo-7uiRKVm9HM99epiG2aP3HYHYTCC3QdKXaf7-cq8MxydTkt9Yt2aDoF8ytcAvVaF0_qwfR6QdPMR3UbB3z_54E1IEtWpGNwCh5JOIINmRGc2IHbV2k1LEXcFHhd0tn-0dp0-6C84ES3kM-2OP3uOCFaIpdf5xsx9OjH2cYM5vRrRMQ-BlxY048M44aydmpMXNx7RKIBpd9bt1U3mI3Y6miIXlQ9MsxSgEW8E4BA-OkRsthzZT5qxI-G96D16BHFeyxuTWLyheQdqDKvFzD_JmhdZmJYGMx7x7nSbUk3KGw-an4l1r5qSDtktfZtPtyMlULnQdpPTPPJ-CTqQAY9Ep-i19fz_DDV5O8jKJYuHZNU6KqQU3SB0e9mT4AfoA685k8nbAXEFaiK1_8g8JPsPPCDvaPjiUABrrhxvGF92AnIB9WEka5cXbOKekrcHs0M6MuqjsPGiRO7K-o_5b0RbRWOGHZmMIXj6Tn1B9I-SwiOnJdxNBZreu4RGnLlew5eRlSRpG7K5vG8jlRyZXl2nioz5bcLdJJB6mYuC8kByV69l_uDEE2y9StdLAQV7l7O6F5uKvkk-CtBD7Di5ByAxvhC6lEZj4vuNJ-lcCaFjfgxZbp8B7zlMNPuLS6fUxWytTEY1j_Z1WROofOy5mlEvq0mSFB2B1m4hFcAT09x3AcI6VMANd8dXJURonQOrNxEfTuNUdC1SEc_M7V1mvl6rjJRliCj_YHU6ZfYyxsx-yWBSjzXKwzMhhhz83iNYgFHp5GykfpVfuirPpHlBEr25Ug3FOwqCoE-Ua9-JMZ5d-0UmX0eB3GN4f3PXRTMAwcPTsfOv9_8hFAW-VMfbrnOa3chrgwvhj-sBTHY88GmcFod7O6dvexgPfvgDvzJ7dihAziYOp6JwtkDhPVlLJScHs0h5WgXMtEeKyp3WhP0GMmNGiWgMQkmLdRW9VcjbDSsjLvWeKOvLLNYhHszAUkRWaYvjEUjvQMiCtibf486MjsDnR0ddxgfXmLdvm3VDirn2z8lJP5UJjT8OIQcBSgc_1ktAYG0bHd3KNNlZFZLVcw1hUOZoxNuxK45wQgtWRxiKvp8TfSqaZMYuqceqnSWAIQNd4BbUnjUS3GkQhz0HzhfNi2evp3uOLA_OGeGyHnARsOCvPUQb7aea7PJtiCK3EkQBVeex26lMMOIFu6zZnY_I1Og1V90zoFwPBmEsQw2KAIIHJmKIgi-FCEIhTy4zRyfjmD1vC1FiKnznCW1IxVnUBn1BYTYy8qVS-6aiPlpqsveFFF__ymhNEuwDY2M1NZxZMSVL2HqTRsxTckkxStQ0J7ArlS3QHbN3BsRTjt_88SLfy0ShwNGIRtk7SftT5yCYumarMRZt60Zp7boDPBvVyMQGMLZpaeqczQVP8rDJOzp5OURMjZJmJ5yxiI_00CWpO0pZj7tRycV7FDY4kCVQFnjKkv9GiorsF0kVMUXNRA64I4AX5LYuF45jR3V71iK1UZmBxpimBQtC6GyrYqJwiNgPDeEU0MAOdkVVIOoYiyogTPsBogEfLke255CEBynUPk60Bq0rkzpx2D3-xN_0A3mzb0g4CtrSSbIk8NvtfzGzIXd76-fr2nTi-NB1Nm6vRDEPj2C0AViREFCDku9lcxgXLExmUfNYfACliZBso0PYpQaCvCQUgeaDPyQzZmQhbALYAbm0kCpzYlcXuW58nUmyqq15n-iKgbiA3-Mm5Tg1yDUkJiZOf7qqpoK0PWyIKmJXOLz9GqYVvIVmEYp66wdzc12z6JuWqhFNyMDdJ5T6kl418pNpEFfoJ-ylOZi-2gBw3DuzLLPRYHsehuhxxsDSIGDmIyIbuNX64mlPVixsVuQ5MbCMTpwv7_VfP3IV89k4lA9aaVH4A8WV3gJja8_66I8HlzgRQXAeQ1JamxzS5SdG9xO6h65nPa5EZvTwWjPLp7YnhAP_PaC_JibJX97H62cQfOQy-vPDPjSVcWoLpxBuvJhDXZDgSFC6ymPaeTxutyuFs0Msf-nBylxYXPH_W1b3vWLZSjEfpI0kL9xhkguGZQANtIR_uXmzleyjGfRY0keFgYaai3Tn9nDh-6UbzW5bc7-21gg-QTFdzeQcy2IJv2d3MNI779a0tO2jWLEM3JWFY9IhJS25fX-7xN8BbSE5OuVOdkN8MDeW4-wEXNetSdy4ZvmnMHryAXtiP3hoZMBjISknwb5CQEvhJrHCmX8XG15Kq8LrSMnQyJeyKGtwG_hytgsQG2oVoFz4FphCX99pNxW5433uFFYTHIfRhYSmEcwKADxHiFYciUishEq2Iyu0K6iOmsxn7eOB7_0h4MY_8hGchj65cTtHlrrf54Sknzb8rVOg6TEPxmw-sUaK1rQx4Py5P7LAcCmSTsNbnJ6Qh7ezRyqC--Bun6f4bB-myzvc7E18aLSHqdf75JZhtjfNykOQOGsOJkVYJoKqmafHA4t81mtVY_4aduG90Gh1b6uxJgWZAZmeWxu3dewS-6TkGe3vWWynPvhJs1vMJ25QCH9vbxvZZ6n23t34wYsdkw2WNX_Dl5hbTmX_BQ2pThC_gUi-0ErbMmNpAxaQvURX2IWIIlxRQt7iCI3ThJs68Tm9dic6Eho7wi41v-hPnG_p-Kq55q6qKH7Su6OhT8Y3dlI_jnyFMmhItXJawxInj-_To8mGOwBGWznFQb3DT0KH1rwMIdd9FcWTpE2eQ6FLP2HVPEB2UBjCHmUwgES96zk6it2cBFmlkgDHUV0wT4Enhd95l6PG7to7kr1LRAsLgUauByy4AEcOh1qfuPatDMJDJoacCNHPfS0frqwu9hG2TltZIM3OEn8A1SBwzKt5dieKY58lsX1DzHlVbjmVOYuGvsx0UrRZjjvO7E5zgUQl-0fzmXlEYUL30epAquuBUxXZh7kaYHv_uhcVuwi3hAVbmH3lJLHWl6qDOz-fPjwRhTIR6zGfNi55xiZTscxG1fh-5Uo4vY6avujb7YhspNxKhBUhowzihKBRAsmDPrk0UX1KJ1Yy6CMrF793WKWYYp5GTDckJCtHpwBQPhcR6I5Gg-1-p_733N8OaI4kM5Pc4UyH7NkJ4ZxarmNl_vcEHwZMYuYDpjlAnyj2bOmqi7vWHnqqwhMT4aeRuI4uyFdaI1qNe-pLNxMKMPMsAs4Bf0ZCtrXfpcPVHgS4tSSTlte3qooVkXkFZrCeL1VlbDhAGHyCFBOlV1bRQkGJfKkLvgl-le24dRfZ84pqeJb30hScTDLaeGj9gf0hHRQI2eLw6JhZdpPfTmfaLC_ylej-xeI1YLtJcZEIXnUr6mnmgcaE7AWk8nPMmOibaZeuswzDskK7zU4jgOSilQEt0rUu-LUwVsRMdvjWQYIzt5BdxxWPhKrTPlKiNxFcGorpByPSOmMS1DD8aELAxllp0QKZ4AeoqUqlg5iHPrHTxG8yYOSryJBtS3VBr30xDBAMkCEG1Eg8dPkufU4LVEA86vCRingIFRxAQRwv78Uc9IjdL8zjq3wQ-4S5K2a4bY9AQ6Yd8HmMiQX-MvC9t35QrAyg6t_qaxeUUcrDqqoeV3S5tW2Ys95M-TW0LvRLGFqcVziuIKvq-K3w3pWKLdY-HNMtXtH-HK_-IYFM48z0xEvYnp0F1AdoLpEPnqL50QCLHNy_c-GRgFMD-n0Y8lkLTBV3vifk5rhnzE893ehjfLRqtZc1brgtS29NeOi5vdCK3vunThie3eWsaF3Tmt8vlpSh13VgfgVhSgc-o_NGVfu_pPZykCrkKYFL9gpn3_JZGMfvz5-Bc460YEZpnrUbp5tfrrU6r64WNcPMX01XlIiovr4M09RNMUdMqxFmC6Fpav4ki8-9ItRzJ0mOBPYjC92WGQfK565OTffxXU0C0ta1ttwmjU3VGxXNeYJ_Xl7zZI8BAawEgi_AkKYZKYbULFbFY8Y2uhB4lXpDK9aRNm7OaLFZNWO3dEcYi5wjo5BISGqffnZ2rRtXblbwczGkhMiLfHCA7v2cNN5amW5nbSOS4mpbD2mMeJrcSmGYeKhP0bm2Lrgpgb7Pg7fRDhOTKtKfx_jx11G9jhoxihTAIEPM5liGuNpUXrV-cF7Wk9mlDlJ4a1dSkf8VLQIwxM2ZF7ls1GKtT-PuHIfdWUXoQq5nv-4Qg-QOYgJbL4LMvEaSAXv5IcBB6deaU8vZgJnYSL9HHoLGitjOMCMwIJ7BrsQbJV2z-wXG-_5zlniaMkh5IbzUGF-RsrAbJ59HAaGX-UziPc4JkWebiY8RTCP07iWK6yGpgWRxcosuwYGQwU-6ge9CfSBnPV9QVk3yVwP-PzAqaDw5OsaUZkLP_vzPiNQqBgqURG6kXeYyMrRZ3iczBZdyRNKHuT37FZHCtInfm6W7-Mp_ro1b7Z_htDTqEgBLTaSv3iqgoA1FyRAurTfllLnXrhtJannJl9eVzjFgKdUcT-PWsKQEErNpzwwklXhiTcbh1OwRbNJQFVC87TQyrlFiCulsJRYtuSk7ufR5tMw191Eqn6hVnklR_csdBaiVNlxTHTd2IjFqN?></g></svg>